<?xml version="1.0" standalone="no"?>
<!DOCTYPE svg PUBLIC "-//W3C//DTD SVG 20010904//EN"
 "http://www.w3.org/TR/2001/REC-SVG-20010904/DTD/svg10.dtd">
<svg version="1.0" xmlns="http://www.w3.org/2000/svg"
 width="150.000000pt" height="150.000000pt" viewBox="0 0 150.000000 150.000000"
 preserveAspectRatio="xMidYMid meet">

<g transform="translate(0.000000,150.000000) scale(0.100000,-0.100000)"
fill="#000000" stroke="none">
<path d="M654 1343 l-89 -58 93 -3 c50 -1 134 -1 184 0 l93 3 -89 58 c-49 31
-92 57 -96 57 -4 0 -47 -26 -96 -57z"/>
<path d="M304 1207 c-2 -7 -3 -82 -2 -167 l3 -154 45 -34 c98 -74 205 -171
267 -242 l66 -74 67 0 67 0 66 74 c62 71 169 168 267 242 l45 34 0 165 0 164
-443 3 c-356 2 -444 0 -448 -11z m543 -140 c72 -38 122 -119 123 -200 0 -40
-5 -53 -29 -78 -33 -32 -74 -38 -108 -14 -18 13 -24 13 -52 -1 -20 -10 -42
-13 -61 -9 -37 8 -80 58 -80 93 0 32 31 87 57 100 16 9 105 17 140 13 8 -1 13
-26 15 -73 3 -70 4 -73 28 -73 23 0 25 4 28 45 2 35 -3 54 -20 79 -39 58 -72
76 -138 76 -66 0 -99 -18 -137 -75 -43 -63 -22 -165 45 -215 22 -16 43 -20
107 -20 75 0 80 -1 83 -22 4 -29 -29 -43 -100 -43 -164 0 -266 169 -193 317
26 52 77 96 131 113 39 13 125 5 161 -13z"/>
<path d="M708 885 c-14 -31 -2 -58 29 -63 26 -4 55 31 51 60 -2 18 -10 24 -35
26 -27 3 -35 -1 -45 -23z"/>
<path d="M188 1029 c-27 -17 -48 -34 -48 -38 0 -8 91 -63 97 -58 2 3 3 32 1
66 l-3 61 -47 -31z"/>
<path d="M1260 996 c0 -36 2 -66 5 -66 9 0 95 55 95 61 0 4 -11 14 -25 23 -14
9 -36 23 -50 32 l-25 16 0 -66z"/>
<path d="M100 535 c0 -271 3 -395 11 -395 5 0 127 79 270 176 l259 175 -29 37
c-44 56 -198 202 -268 255 -72 55 -218 147 -233 147 -7 0 -10 -134 -10 -395z"/>
<path d="M1297 879 c-43 -27 -106 -70 -140 -96 -70 -53 -224 -199 -268 -255
l-29 -36 259 -176 c143 -97 265 -176 271 -176 7 0 10 129 10 395 0 310 -3 395
-12 394 -7 0 -48 -22 -91 -50z"/>
<path d="M461 300 c-145 -99 -269 -184 -275 -190 -7 -7 170 -10 564 -10 487 0
572 2 560 14 -8 7 -133 93 -277 190 -159 107 -270 176 -285 176 -13 -1 -137
-78 -287 -180z"/>
</g>
</svg>
