<?xml version="1.0" encoding="UTF-8"?>
<svg xmlns="http://www.w3.org/2000/svg" xmlns:xlink="http://www.w3.org/1999/xlink" width="100px" height="100px" viewBox="0 0 100 100" version="1.1">
<g id="surface1">
<rect x="0" y="0" width="100" height="100" style="fill:rgb(100%,100%,100%);fill-opacity:1;stroke:none;"/>
<path style=" stroke:none;fill-rule:evenodd;fill:rgb(0%,0%,0%);fill-opacity:1;" d="M 79.414062 11.1875 L 78.417969 10.746094 C 78.007812 10.519531 77.878906 11.089844 77.878906 11.089844 L 77.613281 11.617188 C 77.519531 11.992188 77.25 11.859375 77.25 11.859375 C 76.972656 11.695312 77.089844 11.515625 77.089844 11.515625 L 77.339844 10.902344 C 77.722656 10.355469 77.410156 10.242188 77.410156 10.242188 L 76.730469 9.945312 C 76.242188 9.632812 76.109375 10.273438 76.109375 10.273438 L 75.863281 10.863281 C 75.71875 11.238281 75.40625 11.007812 75.40625 11.007812 C 75.128906 10.894531 75.339844 10.683594 75.339844 10.683594 L 75.570312 10.109375 C 75.90625 9.585938 75.570312 9.488281 75.570312 9.488281 L 74.453125 9.09375 C 74.25 9.128906 74.15625 9.652344 74.15625 9.652344 C 73.738281 10.625 73.390625 10.175781 73.390625 10.175781 C 73.015625 10.027344 73.453125 9.289062 73.453125 9.289062 C 73.773438 8.699219 73.554688 8.652344 73.554688 8.652344 L 72.507812 8.257812 C 72.015625 7.964844 71.933594 8.605469 71.933594 8.605469 L 71.035156 11.304688 C 70.65625 11.828125 71.410156 11.941406 71.410156 11.941406 C 71.871094 12.105469 71.871094 12.382812 71.871094 12.382812 L 71.859375 13.449219 C 71.90625 14.121094 71.625 14.003906 71.625 14.003906 L 70.625 13.695312 C 70.085938 13.332031 70.054688 14.019531 70.054688 14.019531 C 69.773438 14.707031 69.449219 14.398438 69.449219 14.398438 C 69.050781 14.332031 69.285156 13.875 69.285156 13.875 C 69.695312 13.367188 69.21875 13.253906 69.21875 13.253906 L 68.226562 12.894531 C 67.773438 12.730469 67.761719 13.515625 67.761719 13.515625 C 67.550781 14.003906 67.125 13.613281 67.125 13.613281 C 66.550781 13.546875 66.960938 12.972656 66.960938 12.972656 C 67.207031 12.46875 66.765625 12.449219 66.765625 12.449219 L 65.570312 12.105469 C 65.144531 11.910156 65.128906 12.515625 65.128906 12.515625 C 64.960938 13.1875 64.71875 12.925781 64.71875 12.925781 C 64.390625 12.910156 64.71875 12.351562 64.71875 12.351562 C 64.914062 11.910156 64.539062 11.828125 64.539062 11.828125 L 63.570312 11.632812 C 63.214844 11.402344 63.148438 12.109375 63.148438 12.109375 C 63.113281 12.664062 62.753906 12.484375 62.753906 12.484375 C 62.347656 12.386719 62.671875 11.960938 62.671875 11.960938 C 62.902344 11.371094 62.507812 11.417969 62.507812 11.417969 L 61.820312 11.15625 C 61.347656 10.996094 61.59375 10.519531 61.59375 10.519531 L 62.117188 9.882812 C 62.28125 9.40625 62.984375 9.570312 62.984375 9.570312 C 63.605469 9.882812 63.671875 9.210938 63.671875 9.210938 L 64.210938 6.625 C 64.570312 5.855469 64.113281 5.871094 64.113281 5.871094 L 63.230469 5.628906 C 62.640625 5.414062 62.738281 5.921875 62.738281 5.921875 L 62.59375 6.707031 C 62.542969 7.179688 62.183594 6.96875 62.183594 6.96875 C 61.824219 6.886719 61.96875 6.609375 61.96875 6.609375 L 62.070312 5.9375 C 62.230469 5.28125 61.773438 5.332031 61.773438 5.332031 L 60.808594 5.183594 C 60.398438 5.070312 60.449219 5.496094 60.449219 5.496094 L 60.367188 6.332031 C 60.332031 6.675781 60.054688 6.558594 60.054688 6.558594 C 59.792969 6.558594 59.894531 6.261719 59.894531 6.261719 L 59.941406 5.578125 C 60.21875 4.957031 59.679688 4.988281 59.679688 4.988281 L 58.695312 4.921875 C 58.222656 4.855469 58.351562 5.234375 58.351562 5.234375 L 58.285156 6.019531 C 58.21875 6.394531 57.976562 6.214844 57.976562 6.214844 C 57.617188 6.179688 57.761719 5.933594 57.761719 5.933594 L 57.8125 5.328125 C 58.007812 4.757812 57.582031 4.738281 57.582031 4.738281 L 56.5 4.625 C 55.914062 4.527344 56.046875 4.96875 56.046875 4.96875 L 55.980469 5.738281 C 56.046875 6.179688 55.554688 6.035156 55.554688 6.035156 C 55.144531 6.035156 55.324219 5.542969 55.324219 5.542969 C 55.667969 4.347656 55.046875 4.476562 55.046875 4.476562 L 54.113281 4.414062 C 53.425781 4.398438 53.605469 4.804688 53.605469 4.804688 L 53.507812 7.832031 C 53.390625 8.359375 53.917969 8.277344 53.917969 8.277344 C 54.441406 8.308594 54.488281 8.523438 54.488281 8.523438 L 55.011719 9.210938 C 55.308594 9.519531 55.109375 9.796875 55.109375 9.796875 C 55.078125 10.273438 54.292969 10.207031 54.292969 10.207031 C 53.902344 10.226562 53.914062 10.648438 53.914062 10.648438 C 53.703125 11.402344 53.65625 10.519531 53.65625 10.519531 C 53.71875 9.980469 53.277344 10.109375 53.277344 10.109375 L 52.445312 10.09375 C 51.902344 9.980469 51.96875 10.617188 51.96875 10.617188 C 52.050781 11.304688 51.609375 11.140625 51.609375 11.140625 C 51.132812 11.285156 51.28125 10.453125 51.28125 10.453125 C 51.347656 9.945312 50.875 10.011719 50.875 10.011719 L 50.136719 10.042969 C 49.515625 9.960938 49.691406 10.550781 49.691406 10.550781 C 49.855469 11.304688 49.347656 11.105469 49.347656 11.105469 C 48.890625 11.238281 49.070312 10.519531 49.070312 10.519531 C 49.136719 9.945312 48.792969 10.027344 48.792969 10.027344 L 47.550781 10.140625 C 47.238281 10.074219 47.371094 10.699219 47.371094 10.699219 C 47.46875 11.335938 47.007812 11.15625 47.007812 11.15625 C 46.582031 11.222656 46.765625 10.648438 46.765625 10.648438 C 46.847656 9.960938 46.320312 10.109375 46.320312 10.109375 L 45.503906 10.140625 C 44.929688 10.109375 45.207031 9.371094 45.207031 9.371094 L 45.503906 8.882812 C 45.71875 8.292969 46.125 8.324219 46.125 8.324219 C 46.730469 8.457031 46.535156 7.753906 46.535156 7.753906 L 46.355469 4.9375 C 46.4375 4.214844 46.011719 4.445312 46.011719 4.445312 L 44.960938 4.527344 C 44.472656 4.464844 44.683594 4.824219 44.683594 4.824219 L 44.765625 5.675781 C 44.929688 6.097656 44.472656 6.019531 44.472656 6.019531 C 44.046875 6.097656 44.175781 5.757812 44.175781 5.757812 L 44.078125 5.085938 C 44.191406 4.464844 43.703125 4.640625 43.703125 4.640625 L 42.605469 4.742188 C 42.113281 4.757812 42.308594 5.035156 42.308594 5.035156 L 42.425781 5.871094 C 42.605469 6.296875 42.230469 6.230469 42.230469 6.230469 C 41.855469 6.34375 41.902344 6.066406 41.902344 6.066406 L 41.835938 5.445312 C 41.855469 4.710938 41.476562 4.886719 41.476562 4.886719 L 40.429688 5.035156 C 39.988281 5.035156 40.152344 5.414062 40.152344 5.414062 L 40.25 6.246094 C 40.332031 6.738281 39.890625 6.640625 39.890625 6.640625 C 39.398438 6.769531 39.429688 6.363281 39.429688 6.363281 L 39.316406 5.707031 C 39.332031 5.070312 38.90625 5.296875 38.90625 5.296875 L 38.023438 5.492188 C 37.449219 5.589844 37.710938 5.917969 37.710938 5.917969 L 37.859375 6.640625 C 38.023438 6.949219 37.628906 6.964844 37.628906 6.964844 C 37.171875 7.0625 37.269531 6.820312 37.269531 6.820312 L 37.089844 6.097656 C 37.105469 5.492188 36.746094 5.738281 36.746094 5.738281 L 35.746094 5.902344 C 35.257812 5.96875 35.46875 6.394531 35.46875 6.394531 L 36.171875 9.339844 C 36.320312 9.816406 36.714844 9.632812 36.714844 9.632812 C 37.058594 9.488281 37.269531 9.652344 37.269531 9.652344 L 38.695312 10.8125 L 38.679688 11.175781 C 38.792969 11.679688 38.496094 11.402344 38.496094 11.402344 C 38.496094 11.058594 38.074219 11.222656 38.074219 11.222656 L 36.894531 11.566406 C 36.421875 11.632812 36.664062 12.007812 36.664062 12.007812 C 36.976562 12.742188 36.566406 12.695312 36.566406 12.695312 C 36.207031 12.808594 36.160156 12.304688 36.160156 12.304688 C 36.125 11.632812 35.734375 11.796875 35.734375 11.796875 L 34.585938 12.121094 C 34.128906 12.253906 34.441406 12.84375 34.441406 12.84375 C 34.570312 13.253906 34.261719 13.285156 34.261719 13.285156 C 33.847656 13.367188 33.867188 12.890625 33.867188 12.890625 C 33.769531 12.320312 33.441406 12.46875 33.441406 12.46875 L 32.328125 12.761719 C 31.789062 12.90625 32.101562 13.367188 32.101562 13.367188 C 32.3125 13.972656 31.886719 13.941406 31.886719 13.941406 C 31.542969 14.070312 31.476562 13.578125 31.476562 13.578125 C 31.378906 13.152344 31.101562 13.253906 31.101562 13.253906 L 29.921875 13.675781 C 29.726562 13.757812 29.792969 13.972656 29.792969 13.972656 L 29.921875 14.363281 C 30.054688 14.691406 29.726562 14.691406 29.726562 14.691406 C 29.480469 14.789062 29.351562 14.542969 29.351562 14.542969 L 28.566406 13.449219 C 28.351562 12.480469 28.808594 12.105469 28.808594 12.105469 C 29.152344 11.894531 29.007812 11.664062 29.007812 11.664062 L 27.859375 8.667969 C 27.730469 8.277344 27.386719 8.40625 27.386719 8.40625 L 26.273438 8.847656 C 25.996094 8.996094 26.144531 9.195312 26.144531 9.195312 L 26.519531 10.109375 C 26.582031 10.355469 26.355469 10.40625 26.355469 10.40625 C 26.160156 10.519531 26.058594 10.40625 26.058594 10.40625 L 25.621094 9.554688 C 25.472656 9.09375 25.128906 9.277344 25.128906 9.277344 L 24.375 9.652344 C 24.046875 9.816406 24.210938 10.042969 24.210938 10.042969 L 24.554688 10.945312 C 24.65625 11.207031 24.410156 11.222656 24.410156 11.222656 C 24.195312 11.371094 24.097656 11.238281 24.097656 11.238281 L 23.65625 10.371094 C 23.507812 9.929688 23.230469 10.09375 23.230469 10.09375 L 22.332031 10.5 C 22.085938 10.632812 22.199219 10.828125 22.199219 10.828125 L 22.609375 11.730469 C 22.820312 12.089844 22.542969 12.121094 22.542969 12.121094 C 22.199219 12.285156 22.101562 12.089844 22.101562 12.089844 L 21.726562 11.320312 C 21.609375 10.878906 21.234375 11.042969 21.234375 11.042969 L 20.628906 11.371094 C 20.269531 11.5 20.367188 11.8125 20.367188 11.8125 L 21.414062 14.136719 C 21.921875 15.132812 22.691406 15.527344 22.691406 15.527344 C 23.230469 16 23.820312 15.671875 23.820312 15.671875 C 24.148438 15.492188 24.34375 15.691406 24.34375 15.691406 C 24.558594 15.855469 25.816406 18.097656 25.816406 18.097656 C 26.046875 18.324219 25.964844 18.570312 25.964844 18.570312 C 25.75 18.800781 25.980469 19.09375 25.980469 19.09375 C 26.160156 19.40625 26.339844 19.453125 26.339844 19.453125 C 26.652344 19.472656 26.765625 19.699219 26.765625 19.699219 L 28.550781 22.777344 C 28.730469 23.023438 28.582031 23.136719 28.582031 23.136719 L 28.285156 23.351562 C 28.007812 23.5 28.125 23.808594 28.125 23.808594 L 28.5 24.675781 C 28.648438 25.101562 29.007812 24.972656 29.007812 24.972656 C 29.253906 24.921875 29.289062 25.003906 29.289062 25.003906 L 29.730469 25.917969 C 29.894531 26.183594 29.730469 26.261719 29.730469 26.261719 L 29.109375 26.738281 C 28.878906 26.871094 29.023438 27.066406 29.023438 27.066406 L 29.433594 27.917969 C 29.621094 28.472656 29.996094 28.183594 30.035156 28.148438 C 29.992188 28.203125 29.949219 28.253906 29.910156 28.308594 L 29.78125 28.492188 L 29.765625 28.710938 C 29.765625 28.757812 29.660156 30.589844 29.660156 33.648438 C 29.660156 38.355469 29.90625 45.972656 31.164062 54.414062 C 33.082031 67.308594 37.808594 84.847656 49.449219 95.136719 L 49.957031 95.589844 L 50.46875 95.136719 C 62.105469 84.847656 66.855469 67.3125 68.789062 54.414062 C 70.074219 45.851562 70.324219 38.136719 70.324219 33.445312 C 70.324219 30.511719 70.226562 28.757812 70.222656 28.710938 L 70.210938 28.492188 L 70.082031 28.308594 C 70.042969 28.257812 69.996094 28.203125 69.957031 28.152344 C 69.992188 28.144531 70.023438 28.144531 70.023438 28.144531 C 70.203125 28.457031 70.582031 28.128906 70.582031 28.128906 L 71.070312 27.148438 C 71.382812 26.753906 70.992188 26.511719 70.992188 26.511719 L 70.695312 26.28125 C 70.300781 26.132812 70.546875 25.886719 70.546875 25.886719 L 70.957031 24.988281 C 71.367188 25.070312 71.429688 24.808594 71.429688 24.808594 L 71.84375 23.988281 C 72.234375 23.429688 71.875 23.253906 71.875 23.253906 C 71.582031 22.988281 71.792969 22.761719 71.792969 22.761719 L 73.527344 19.683594 C 73.625 19.457031 73.804688 19.40625 73.804688 19.40625 C 74.066406 19.390625 74.214844 19.128906 74.214844 19.128906 C 74.476562 18.964844 74.378906 18.667969 74.378906 18.667969 C 74.164062 18.195312 74.441406 18.015625 74.441406 18.015625 L 75.738281 15.789062 C 75.898438 15.460938 76.179688 15.558594 76.179688 15.558594 C 76.472656 15.640625 76.539062 15.574219 76.539062 15.574219 C 76.585938 15.492188 76.929688 15.394531 76.929688 15.394531 C 77.210938 15.347656 77.40625 15.070312 77.40625 15.070312 C 77.503906 14.855469 77.699219 14.789062 77.699219 14.789062 C 77.980469 14.757812 78.144531 14.480469 78.144531 14.480469 L 79.417969 11.992188 C 79.9375 11.433594 79.414062 11.1875 79.414062 11.1875 Z M 79.414062 11.1875 "/>
<path style=" stroke:none;fill-rule:evenodd;fill:rgb(100%,100%,100%);fill-opacity:1;" d="M 49.953125 93.496094 C 60.859375 83.457031 65.390625 66.652344 67.257812 54.214844 C 68.304688 47.257812 68.660156 40.875 68.753906 36.246094 C 64.78125 32.351562 52.980469 31.597656 50.25 31.472656 C 47.402344 31.601562 34.71875 32.410156 31.289062 36.738281 C 31.28125 36.929688 31.265625 37.238281 31.253906 37.648438 C 31.378906 42.125 31.753906 47.9375 32.6875 54.214844 C 34.539062 66.652344 39.050781 83.457031 49.953125 93.496094 Z M 49.953125 93.496094 "/>
<path style=" stroke:none;fill-rule:evenodd;fill:rgb(97.647059%,86.27451%,18.823529%);fill-opacity:1;" d="M 33.367188 31.847656 C 33.484375 32.085938 33.8125 32.492188 34.609375 32.132812 C 35.042969 31.9375 35.476562 31.617188 35.265625 31.15625 C 35.113281 30.8125 34.742188 30.871094 34.230469 30.972656 L 33.714844 31.074219 C 32.933594 31.230469 32.183594 31.378906 31.746094 30.417969 C 31.527344 29.933594 31.402344 28.957031 32.816406 28.316406 C 34.152344 27.710938 34.90625 28.421875 35.15625 28.957031 L 34.28125 29.351562 C 34.167969 29.167969 33.886719 28.738281 33.089844 29.101562 C 32.746094 29.257812 32.390625 29.570312 32.570312 29.964844 C 32.722656 30.308594 33.035156 30.253906 33.238281 30.214844 L 34.417969 29.992188 C 35.082031 29.871094 35.738281 29.863281 36.09375 30.648438 C 36.6875 31.960938 35.402344 32.683594 35.019531 32.855469 C 33.429688 33.574219 32.738281 32.78125 32.492188 32.242188 Z M 39.933594 27.105469 L 37.46875 27.714844 L 37.710938 28.691406 L 39.976562 28.132812 L 40.179688 28.953125 L 37.914062 29.515625 L 38.210938 30.71875 L 40.789062 30.082031 L 40.992188 30.902344 L 37.460938 31.777344 L 36.3125 27.128906 L 39.730469 26.28125 Z M 42.4375 29.183594 C 42.484375 29.445312 42.691406 29.925781 43.554688 29.800781 C 44.023438 29.730469 44.527344 29.542969 44.453125 29.039062 C 44.398438 28.671875 44.027344 28.625 43.507812 28.578125 L 42.984375 28.535156 C 42.191406 28.46875 41.425781 28.40625 41.273438 27.363281 C 41.195312 26.835938 41.34375 25.863281 42.882812 25.636719 C 44.332031 25.425781 44.863281 26.316406 44.953125 26.898438 L 44.003906 27.039062 C 43.945312 26.832031 43.792969 26.339844 42.929688 26.46875 C 42.554688 26.523438 42.125 26.726562 42.1875 27.15625 C 42.242188 27.527344 42.558594 27.558594 42.761719 27.578125 L 43.957031 27.691406 C 44.628906 27.753906 45.261719 27.929688 45.386719 28.78125 C 45.597656 30.207031 44.164062 30.546875 43.746094 30.609375 C 42.019531 30.863281 41.574219 29.910156 41.488281 29.324219 Z M 47.484375 30.039062 L 46.488281 30.136719 L 46.023438 25.371094 L 47.019531 25.273438 Z M 53.121094 29.957031 L 52.1875 29.910156 L 52.386719 25.914062 L 52.371094 25.914062 L 51.285156 29.867188 L 50.304688 29.816406 L 49.628906 25.777344 L 49.613281 25.777344 L 49.417969 29.773438 L 48.484375 29.726562 L 48.71875 24.945312 L 50.179688 25.015625 L 50.859375 28.828125 L 50.875 28.832031 L 51.910156 25.101562 L 53.359375 25.171875 Z M 55.472656 28.105469 L 56.734375 28.261719 C 57.09375 28.308594 57.429688 28.511719 57.378906 28.929688 C 57.316406 29.414062 57.011719 29.589844 56.53125 29.527344 L 55.3125 29.375 Z M 54.257812 30.074219 L 56.265625 30.328125 C 57.242188 30.449219 57.519531 30.316406 57.824219 30.085938 C 58.117188 29.863281 58.3125 29.527344 58.359375 29.160156 C 58.417969 28.691406 58.324219 28.207031 57.769531 27.917969 C 57.976562 27.84375 58.386719 27.699219 58.472656 27.015625 C 58.535156 26.527344 58.328125 25.761719 57.164062 25.613281 L 54.855469 25.324219 Z M 55.703125 26.265625 L 56.84375 26.40625 C 57.292969 26.464844 57.554688 26.617188 57.503906 27.007812 C 57.457031 27.386719 57.128906 27.5 56.738281 27.449219 L 55.574219 27.304688 Z M 60.714844 28.324219 L 60.992188 27.074219 L 62.210938 27.34375 C 62.78125 27.46875 62.8125 27.859375 62.757812 28.105469 C 62.65625 28.570312 62.367188 28.691406 61.859375 28.578125 Z M 59.179688 30.730469 L 60.136719 30.941406 L 60.539062 29.113281 L 61.550781 29.335938 C 62.273438 29.496094 62.257812 29.75 62.117188 30.390625 C 62.007812 30.871094 61.996094 31.121094 62.011719 31.355469 L 63.09375 31.59375 L 63.121094 31.472656 C 62.929688 31.347656 62.964844 31.179688 63.117188 30.492188 C 63.3125 29.621094 63.132812 29.433594 62.785156 29.179688 C 63.28125 29.125 63.640625 28.738281 63.753906 28.222656 C 63.84375 27.820312 63.820312 26.851562 62.574219 26.578125 L 60.210938 26.054688 Z M 67.109375 29.117188 L 67.121094 29.121094 L 66.945312 31.101562 L 65.816406 30.632812 Z M 65.253906 31.296875 L 66.890625 31.972656 L 66.796875 33 L 67.800781 33.414062 L 68.070312 28.34375 L 67.003906 27.902344 L 63.597656 31.679688 L 64.570312 32.082031 Z M 65.253906 31.296875 "/>
<path style=" stroke:none;fill-rule:evenodd;fill:rgb(71.764706%,15.294118%,17.647059%);fill-opacity:1;" d="M 51.46875 51.835938 L 60.164062 51.835938 L 60.164062 48.875 L 51.46875 48.875 L 51.46875 40.503906 C 51.847656 40.585938 53.796875 41.167969 53.289062 44 C 53.289062 44 58.367188 40.488281 54.324219 38.234375 C 54.324219 38.234375 49.996094 37.421875 49.996094 35.476562 L 49.980469 35.476562 C 49.980469 37.421875 45.652344 38.234375 45.652344 38.234375 C 41.609375 40.488281 46.6875 44 46.6875 44 C 46.179688 41.167969 48.128906 40.585938 48.507812 40.503906 L 48.507812 48.875 L 39.867188 48.875 C 39.988281 48.285156 40.542969 46.753906 43.089844 47.214844 C 43.089844 47.214844 39.582031 42.132812 37.324219 46.179688 C 37.324219 46.179688 36.511719 50.507812 34.566406 50.507812 L 34.566406 50.519531 C 36.511719 50.519531 37.324219 54.847656 37.324219 54.847656 C 39.582031 58.894531 43.089844 53.8125 43.089844 53.8125 C 39.957031 54.375 39.582031 51.929688 39.582031 51.929688 L 39.8125 49.367188 L 39.8125 51.835938 L 48.507812 51.835938 L 48.507812 60.054688 L 45.941406 62.75 L 49.789062 90.472656 L 50.183594 90.472656 L 54.035156 62.75 L 51.46875 60.054688 Z M 51.46875 51.835938 "/>
<path style=" stroke:none;fill-rule:evenodd;fill:rgb(71.764706%,15.294118%,17.647059%);fill-opacity:1;" d="M 50.109375 35.476562 L 49.851562 35.476562 C 49.851562 37.292969 45.671875 38.097656 45.628906 38.105469 L 45.589844 38.121094 C 44.550781 38.703125 44.003906 39.417969 43.964844 40.257812 C 43.960938 40.289062 43.960938 40.324219 43.960938 40.355469 C 43.960938 42.25 46.503906 44.03125 46.617188 44.105469 L 46.8125 43.976562 C 46.761719 43.695312 46.734375 43.40625 46.730469 43.117188 C 46.730469 41.367188 47.886719 40.824219 48.378906 40.671875 L 48.378906 48.746094 L 40.03125 48.746094 C 40.214844 48.085938 40.84375 46.9375 43.066406 47.339844 L 43.195312 47.140625 C 43.117188 47.027344 41.277344 44.394531 39.347656 44.488281 C 38.511719 44.527344 37.792969 45.074219 37.210938 46.117188 L 37.199219 46.152344 C 37.1875 46.195312 36.382812 50.378906 34.566406 50.378906 L 34.566406 50.648438 C 36.382812 50.648438 37.191406 54.828125 37.199219 54.871094 L 37.210938 54.910156 C 37.792969 55.949219 38.511719 56.496094 39.347656 56.539062 C 41.277344 56.628906 43.117188 53.996094 43.195312 53.886719 L 43.066406 53.6875 C 42.042969 53.871094 41.21875 53.746094 40.613281 53.316406 C 39.882812 52.796875 39.722656 51.996094 39.710938 51.925781 L 39.714844 51.867188 L 39.8125 51.964844 L 48.378906 51.964844 L 48.378906 60.003906 L 45.847656 62.660156 L 45.816406 62.765625 L 49.664062 90.492188 L 49.789062 90.601562 L 50.1875 90.601562 L 50.3125 90.492188 L 54.160156 62.765625 L 54.128906 62.660156 C 54.128906 62.660156 51.664062 60.078125 51.597656 60.003906 L 51.597656 51.964844 L 60.164062 51.964844 L 60.292969 51.835938 L 60.292969 48.875 L 60.164062 48.746094 L 51.597656 48.746094 L 51.597656 40.671875 C 52.089844 40.824219 53.242188 41.367188 53.242188 43.117188 C 53.242188 43.378906 53.21875 43.664062 53.160156 43.976562 L 53.359375 44.105469 C 53.472656 44.027344 56.105469 42.1875 56.011719 40.257812 C 55.972656 39.421875 55.425781 38.703125 54.386719 38.121094 L 54.347656 38.109375 C 54.304688 38.101562 50.125 37.292969 50.125 35.476562 C 50.121094 35.476562 50.109375 35.476562 50.109375 35.476562 Z M 50.109375 35.476562 "/>
<path style=" stroke:none;fill-rule:evenodd;fill:rgb(71.764706%,15.294118%,17.647059%);fill-opacity:1;" d="M 62.652344 46.179688 C 60.394531 42.132812 56.886719 47.214844 56.886719 47.214844 C 60.019531 46.648438 60.394531 49.097656 60.394531 49.097656 L 60.394531 51.929688 C 60.394531 51.929688 60.019531 54.378906 56.886719 53.8125 C 56.886719 53.8125 60.394531 58.894531 62.652344 54.847656 C 62.652344 54.847656 63.464844 50.519531 65.410156 50.519531 L 65.410156 50.507812 C 63.464844 50.507812 62.652344 46.179688 62.652344 46.179688 Z M 62.652344 46.179688 "/>
<path style=" stroke:none;fill-rule:evenodd;fill:rgb(71.764706%,15.294118%,17.647059%);fill-opacity:1;" d="M 56.777344 47.140625 L 56.90625 47.339844 C 57.933594 47.15625 58.757812 47.28125 59.363281 47.710938 C 60.125 48.25 60.265625 49.105469 60.269531 49.113281 L 60.265625 51.929688 C 60.265625 51.917969 60.125 52.773438 59.363281 53.316406 C 58.757812 53.746094 57.933594 53.871094 56.90625 53.6875 L 56.777344 53.886719 C 56.855469 53.996094 58.699219 56.628906 60.628906 56.535156 C 61.464844 56.496094 62.183594 55.949219 62.761719 54.910156 L 62.777344 54.871094 C 62.785156 54.828125 63.589844 50.648438 65.410156 50.648438 L 65.410156 50.378906 C 63.589844 50.378906 62.785156 46.195312 62.777344 46.152344 L 62.761719 46.117188 C 62.183594 45.074219 61.464844 44.527344 60.628906 44.488281 C 58.699219 44.394531 56.855469 47.027344 56.777344 47.140625 Z M 56.777344 47.140625 "/>
<path style=" stroke:none;fill-rule:evenodd;fill:rgb(71.764706%,15.294118%,17.647059%);fill-opacity:1;" d="M 51.339844 60.054688 L 51.339844 51.835938 L 51.46875 51.707031 L 60.035156 51.707031 L 60.035156 49 L 51.46875 49 L 51.339844 48.875 L 51.339844 40.503906 L 51.496094 40.378906 C 51.863281 40.460938 53.5 40.949219 53.5 43.105469 C 53.5 43.292969 53.484375 43.5 53.457031 43.714844 C 54.089844 43.21875 55.757812 41.789062 55.757812 40.355469 C 55.757812 40.328125 55.757812 40.296875 55.757812 40.269531 C 55.722656 39.53125 55.222656 38.886719 54.273438 38.355469 C 53.976562 38.296875 50.644531 37.617188 49.988281 36.027344 C 49.332031 37.617188 46.003906 38.296875 45.703125 38.355469 C 44.757812 38.886719 44.257812 39.53125 44.21875 40.269531 C 44.21875 40.296875 44.21875 40.328125 44.21875 40.355469 C 44.21875 41.789062 45.886719 43.21875 46.519531 43.714844 C 46.492188 43.511719 46.476562 43.308594 46.476562 43.105469 C 46.476562 40.949219 48.113281 40.460938 48.480469 40.378906 L 48.636719 40.503906 L 48.636719 48.875 L 48.507812 49 L 39.867188 49 L 39.742188 48.847656 C 39.847656 48.332031 40.375 46.742188 42.804688 47.042969 C 42.300781 46.394531 40.820312 44.675781 39.359375 44.746094 C 38.621094 44.78125 37.976562 45.28125 37.445312 46.226562 C 37.386719 46.527344 36.707031 49.855469 35.117188 50.511719 C 36.707031 51.171875 37.386719 54.5 37.445312 54.796875 C 37.976562 55.746094 38.621094 56.246094 39.359375 56.28125 C 40.832031 56.351562 42.324219 54.601562 42.816406 53.964844 C 41.859375 54.085938 41.058594 53.949219 40.460938 53.523438 C 39.609375 52.917969 39.460938 51.988281 39.453125 51.949219 L 39.453125 51.917969 L 39.683594 49.355469 L 39.941406 49.367188 L 39.941406 51.707031 L 48.507812 51.707031 L 48.636719 51.835938 L 48.636719 60.054688 L 48.601562 60.144531 L 46.078125 62.792969 C 46.09375 62.914062 49.871094 90.128906 49.902344 90.347656 L 50.074219 90.347656 C 50.105469 90.128906 53.882812 62.914062 53.898438 62.792969 L 51.375 60.144531 Z M 51.339844 60.054688 "/>
<path style=" stroke:none;fill-rule:evenodd;fill:rgb(71.764706%,15.294118%,17.647059%);fill-opacity:1;" d="M 62.53125 46.226562 C 62 45.28125 61.355469 44.78125 60.617188 44.746094 C 59.144531 44.675781 57.652344 46.425781 57.160156 47.058594 C 58.117188 46.9375 58.914062 47.074219 59.515625 47.503906 C 60.367188 48.109375 60.515625 49.035156 60.523438 49.09375 L 60.523438 51.949219 C 60.515625 51.988281 60.363281 52.917969 59.515625 53.523438 C 58.914062 53.949219 58.117188 54.085938 57.160156 53.964844 C 57.652344 54.601562 59.144531 56.351562 60.617188 56.28125 C 61.355469 56.246094 62 55.746094 62.53125 54.796875 C 62.589844 54.5 63.269531 51.171875 64.859375 50.511719 C 63.269531 49.855469 62.589844 46.527344 62.53125 46.226562 Z M 62.53125 46.226562 "/>
<path style=" stroke:none;fill-rule:evenodd;fill:rgb(0%,0%,0%);fill-opacity:1;" d="M 62.355469 13.203125 C 62.339844 12.839844 62.652344 12.992188 62.652344 12.992188 L 62.976562 13.085938 C 63.339844 13.160156 63.359375 12.902344 63.359375 12.902344 L 63.496094 12.289062 C 63.515625 11.9375 63.890625 12.085938 63.890625 12.085938 L 64.097656 12.167969 C 64.390625 12.257812 64.238281 12.40625 64.238281 12.40625 L 64.101562 12.917969 C 63.988281 13.34375 64.339844 13.335938 64.339844 13.335938 L 64.726562 13.472656 C 65.132812 13.605469 65.203125 13.359375 65.203125 13.359375 L 65.472656 12.652344 C 65.503906 12.324219 66.199219 12.703125 66.199219 12.703125 L 66.371094 12.773438 C 66.625 12.832031 66.550781 13.007812 66.550781 13.007812 L 66.398438 13.566406 C 66.234375 14.050781 66.535156 14 66.535156 14 L 67.4375 14.3125 C 67.855469 14.402344 67.839844 14.097656 67.839844 14.097656 L 68.019531 13.507812 C 68.046875 13.25 68.183594 13.328125 68.183594 13.328125 L 68.59375 13.433594 C 69.25 13.5625 68.972656 13.8125 68.972656 13.8125 L 68.816406 14.359375 C 68.792969 14.8125 69.15625 14.878906 69.15625 14.878906 L 69.566406 15.039062 C 69.859375 15.074219 70.019531 14.835938 70.019531 14.835938 L 70.261719 14.460938 C 70.261719 14.230469 70.585938 14.15625 70.585938 14.15625 L 70.882812 14.222656 C 71.179688 14.449219 70.929688 14.675781 70.929688 14.675781 L 70.007812 15.523438 C 69.726562 15.796875 69.65625 15.667969 69.65625 15.667969 C 65.722656 14.144531 62.59375 13.472656 62.59375 13.472656 C 62.179688 13.433594 62.355469 13.203125 62.355469 13.203125 Z M 67.550781 17.785156 L 66.472656 17.402344 C 66.132812 17.351562 66.335938 17.148438 66.335938 17.148438 L 66.445312 16.914062 C 66.414062 16.546875 66.765625 16.746094 66.765625 16.746094 L 67.847656 17.109375 C 68.164062 17.242188 67.839844 17.589844 67.839844 17.589844 C 67.816406 17.90625 67.550781 17.785156 67.550781 17.785156 Z M 67.460938 18.667969 C 67.316406 18.839844 67.164062 18.703125 67.164062 18.703125 C 66.929688 18.648438 67.175781 18.3125 67.175781 18.3125 C 67.242188 18.15625 67.46875 18.226562 67.46875 18.226562 L 67.617188 18.324219 C 67.765625 18.421875 67.460938 18.667969 67.460938 18.667969 Z M 63.003906 19.648438 C 62.988281 19.5 63.019531 19.324219 63.277344 19.402344 C 63.277344 19.402344 63.804688 19.652344 64.042969 19.585938 C 64.042969 19.585938 64.585938 19.789062 64.316406 19.96875 C 64.222656 20.03125 64.203125 20.398438 63.941406 20.265625 L 63.261719 20.039062 C 63.261719 20.039062 63.164062 20.117188 63.054688 19.78125 C 63.019531 19.667969 63.003906 19.640625 63.003906 19.648438 Z M 63.039062 19.828125 C 63.039062 19.828125 63.019531 19.769531 63.007812 19.695312 C 63.019531 19.75 63.039062 19.828125 63.039062 19.828125 Z M 62.652344 15.914062 C 62.652344 15.914062 62.792969 16.207031 62.664062 15.863281 C 62.535156 15.523438 62.945312 15.648438 62.945312 15.648438 L 63.863281 15.910156 C 64.148438 15.90625 64.078125 16.136719 64.078125 16.136719 L 63.972656 16.480469 C 63.953125 16.722656 63.648438 16.558594 63.648438 16.558594 L 62.84375 16.328125 C 62.675781 16.296875 62.707031 16.199219 62.707031 16.199219 Z M 62.550781 15.011719 L 62.496094 14.78125 C 62.34375 14.589844 62.691406 14.554688 62.691406 14.554688 L 63.082031 14.671875 C 63.378906 14.746094 63.21875 14.929688 63.21875 14.929688 C 63.195312 15.421875 62.957031 15.207031 62.957031 15.207031 L 62.710938 15.128906 C 62.574219 15.105469 62.550781 15.011719 62.550781 15.011719 Z M 65.921875 16.519531 C 66.34375 16.542969 66.078125 16.890625 66.078125 16.890625 C 66.078125 17.410156 65.730469 17.15625 65.730469 17.15625 L 64.550781 16.816406 C 64.09375 16.78125 64.386719 16.300781 64.386719 16.300781 C 64.40625 16.003906 64.726562 16.121094 64.726562 16.121094 Z M 65.511719 15.648438 C 65.523438 15.207031 66.0625 15.425781 66.0625 15.425781 L 67.1875 15.820312 C 67.53125 15.925781 67.289062 16.246094 67.289062 16.246094 C 67.230469 16.617188 66.878906 16.421875 66.878906 16.421875 L 65.75 16.039062 C 65.269531 15.859375 65.511719 15.648438 65.511719 15.648438 Z M 66.679688 17.949219 C 66.835938 18.136719 66.804688 18.183594 66.804688 18.183594 L 66.71875 18.40625 C 66.707031 18.671875 66.425781 18.496094 66.425781 18.496094 L 65.273438 18.125 C 64.972656 17.996094 65.203125 17.765625 65.203125 17.765625 C 65.289062 17.433594 65.550781 17.566406 65.550781 17.566406 C 65.550781 17.566406 66.640625 17.898438 66.679688 17.949219 Z M 64.851562 17.636719 C 64.777344 18.117188 64.480469 17.917969 64.480469 17.917969 L 63.3125 17.542969 C 62.980469 17.457031 63.226562 17.125 63.226562 17.125 C 63.289062 16.855469 63.535156 16.984375 63.535156 16.984375 C 63.535156 16.984375 64.652344 17.292969 64.730469 17.332031 C 65.046875 17.503906 64.851562 17.636719 64.851562 17.636719 Z M 65.117188 15.546875 C 65.007812 15.957031 64.640625 15.703125 64.640625 15.703125 L 63.835938 15.472656 C 63.417969 15.382812 63.660156 15.117188 63.660156 15.117188 C 63.671875 14.675781 64.089844 14.875 64.089844 14.875 L 64.945312 15.117188 C 65.363281 15.207031 65.117188 15.546875 65.117188 15.546875 Z M 63.03125 17.992188 C 63.441406 18.046875 63.335938 18.335938 63.335938 18.335938 C 63.335938 18.386719 63.269531 18.617188 63.269531 18.617188 C 63.25 18.734375 63.050781 18.800781 63.050781 18.800781 C 62.921875 18.992188 62.773438 18.25 62.773438 18.25 C 62.710938 17.980469 63.03125 17.992188 63.03125 17.992188 Z M 63.03125 17.992188 "/>
<path style=" stroke:none;fill-rule:evenodd;fill:rgb(97.647059%,86.27451%,18.823529%);fill-opacity:1;" d="M 63.746094 18.976562 C 63.441406 18.917969 63.679688 18.4375 63.679688 18.4375 C 63.722656 18.113281 64.144531 18.261719 64.144531 18.261719 C 64.574219 18.425781 65.101562 18.5 65.101562 18.5 C 65.582031 18.574219 65.292969 19.164062 65.292969 19.164062 C 65.242188 19.503906 64.960938 19.382812 64.960938 19.382812 Z M 63.746094 18.976562 "/>
<path style=" stroke:none;fill-rule:evenodd;fill:rgb(0%,0%,0%);fill-opacity:1;" d="M 64.5625 20.207031 C 64.5625 20.207031 64.632812 19.746094 65.070312 19.898438 L 65.90625 20.191406 C 65.90625 20.191406 66.210938 20.246094 66.011719 20.488281 C 66.011719 20.488281 65.980469 20.765625 65.574219 20.746094 C 65.574219 20.746094 64.847656 20.453125 64.792969 20.457031 C 64.738281 20.457031 64.417969 20.503906 64.5625 20.207031 Z M 65.828125 19.683594 C 65.347656 19.574219 65.746094 19.089844 65.746094 19.089844 C 65.855469 18.730469 66.1875 18.921875 66.1875 18.921875 L 66.824219 19.167969 C 67.148438 19.285156 66.640625 19.71875 66.640625 19.71875 C 66.410156 20.003906 65.828125 19.683594 65.828125 19.683594 Z M 67.773438 16.714844 C 67.40625 16.621094 67.714844 16.320312 67.714844 16.320312 C 67.722656 15.949219 68.03125 16.097656 68.03125 16.097656 L 68.738281 16.347656 C 69.101562 16.441406 68.851562 16.742188 68.851562 16.742188 C 68.769531 17.125 68.476562 16.910156 68.476562 16.910156 Z M 62.382812 14.050781 L 62.40625 13.914062 C 65.210938 14.359375 69.433594 16.117188 69.433594 16.117188 L 69.378906 16.242188 C 65.261719 14.484375 62.382812 14.050781 62.382812 14.050781 Z M 54.269531 7.679688 C 53.914062 7.714844 53.949219 7.40625 53.949219 7.40625 L 54.050781 5.261719 C 54.082031 4.851562 54.492188 4.917969 54.492188 4.917969 C 54.902344 4.902344 54.832031 5.191406 54.832031 5.191406 L 54.714844 6.097656 C 54.765625 6.4375 54.988281 6.402344 54.988281 6.402344 L 55.925781 6.472656 C 56.265625 6.488281 56.300781 6.300781 56.300781 6.300781 L 56.417969 5.292969 C 56.453125 4.9375 56.980469 5.105469 56.980469 5.105469 C 57.253906 5.105469 57.269531 5.363281 57.269531 5.363281 L 57.152344 6.144531 C 57.085938 6.554688 57.253906 6.640625 57.253906 6.640625 L 58.105469 6.792969 C 58.414062 6.84375 58.59375 6.523438 58.59375 6.523438 L 58.746094 5.496094 C 58.78125 5.191406 59.460938 5.363281 59.460938 5.363281 C 59.75 5.378906 59.546875 5.890625 59.546875 5.890625 L 59.480469 6.589844 C 59.394531 7.03125 59.785156 7.050781 59.785156 7.050781 L 60.195312 7.136719 C 60.703125 7.21875 60.652344 6.523438 60.652344 6.523438 L 60.773438 5.769531 C 60.824219 5.566406 61.441406 5.738281 61.441406 5.738281 C 61.800781 5.738281 61.726562 6.042969 61.726562 6.042969 L 61.625 6.898438 C 61.539062 7.238281 61.71875 7.390625 61.71875 7.390625 L 62.394531 7.527344 C 62.632812 7.578125 62.839844 7.253906 62.839844 7.253906 L 63.058594 6.199219 C 63.078125 5.941406 63.585938 6.128906 63.585938 6.128906 C 64.117188 6.199219 63.949219 6.453125 63.949219 6.453125 L 63.496094 8.5 C 63.296875 9.179688 62.703125 8.894531 62.703125 8.894531 C 60.332031 8.328125 54.269531 7.679688 54.269531 7.679688 Z M 55.039062 8.667969 C 54.785156 8.328125 55.226562 8.398438 55.226562 8.398438 C 57.679688 8.445312 61.601562 9.285156 61.601562 9.285156 C 62.097656 9.316406 61.808594 9.554688 61.808594 9.554688 C 61.550781 9.878906 61.277344 9.933594 61.277344 9.933594 C 61.089844 10.015625 60.816406 10.015625 60.816406 10.015625 L 55.5 9.265625 C 55.121094 9.230469 55.039062 8.667969 55.039062 8.667969 Z M 55.039062 8.667969 "/>
<path style=" stroke:none;fill-rule:evenodd;fill:rgb(97.647059%,86.27451%,18.823529%);fill-opacity:1;" d="M 55.5 10.550781 C 55.742188 9.78125 56.144531 10.015625 56.144531 10.015625 L 59.957031 10.535156 C 61.136719 10.511719 60.945312 11.191406 60.945312 11.191406 L 62.0625 20.03125 L 59.523438 19.535156 C 58.933594 19.496094 59.128906 18.753906 59.128906 18.753906 C 59.125 13.84375 57.488281 13.859375 57.488281 13.859375 C 55.445312 13.640625 54.777344 18.222656 54.777344 18.222656 C 54.71875 18.769531 54.222656 18.621094 54.222656 18.621094 L 52.226562 18.40625 Z M 55.5 10.550781 "/>
<path style=" stroke:none;fill-rule:evenodd;fill:rgb(0%,0%,0%);fill-opacity:1;" d="M 57.382812 14.628906 C 56.027344 14.242188 55.222656 18.546875 55.222656 18.546875 L 54.953125 18.496094 C 55.898438 13.695312 57.4375 14.175781 57.4375 14.175781 C 59.199219 14.84375 58.714844 19.152344 58.714844 19.152344 L 58.441406 19.058594 C 58.746094 14.742188 57.382812 14.628906 57.382812 14.628906 Z M 51.535156 18.21875 C 51.332031 18.507812 51.261719 18.402344 51.261719 18.402344 L 50.546875 18.421875 C 50.257812 18.472656 50.339844 18.113281 50.273438 18.03125 C 50.070312 17.773438 50.648438 17.738281 50.648438 17.738281 C 50.855469 17.875 51.429688 17.789062 51.429688 17.789062 C 51.703125 17.789062 51.679688 17.964844 51.625 18.105469 C 51.621094 18.097656 51.597656 18.125 51.535156 18.21875 Z M 51.601562 18.152344 C 51.566406 18.21875 51.535156 18.269531 51.535156 18.269531 Z M 48.6875 17.773438 L 49.574219 17.738281 C 50.035156 17.722656 49.964844 18.183594 49.964844 18.183594 C 50.015625 18.507812 49.726562 18.371094 49.675781 18.351562 C 49.625 18.335938 48.84375 18.402344 48.84375 18.402344 C 48.449219 18.304688 48.5 18.03125 48.5 18.03125 C 48.378906 17.738281 48.6875 17.773438 48.6875 17.773438 Z M 53.050781 14.636719 L 52.914062 14.890625 C 52.914062 14.890625 52.914062 14.992188 52.746094 14.976562 L 51.910156 14.960938 C 51.910156 14.960938 51.570312 15.03125 51.621094 14.789062 L 51.621094 14.433594 C 51.621094 14.433594 51.621094 14.195312 51.894531 14.277344 L 52.847656 14.296875 C 52.847656 14.296875 53.273438 14.296875 53.050781 14.585938 C 52.832031 14.875 53.050781 14.636719 53.050781 14.636719 Z M 50.050781 13.851562 L 48.859375 13.886719 C 48.859375 13.886719 48.46875 13.972656 48.519531 13.597656 C 48.519531 13.597656 48.378906 13.222656 48.738281 13.222656 L 49.933594 13.167969 C 49.933594 13.167969 50.511719 13.121094 50.394531 13.542969 C 50.394531 13.546875 50.5625 13.816406 50.050781 13.851562 Z M 48.875 14.226562 C 48.875 14.226562 49.265625 14.140625 49.132812 14.484375 L 49.167969 14.738281 C 49.167969 14.738281 49.300781 14.992188 48.960938 14.945312 L 47.816406 14.992188 C 47.816406 14.992188 47.527344 15.027344 47.597656 14.722656 C 47.597656 14.722656 47.390625 14.296875 47.734375 14.261719 Z M 48.601562 15.402344 C 48.652344 15.371094 49.792969 15.371094 49.792969 15.371094 C 49.792969 15.371094 50.085938 15.316406 50.066406 15.660156 C 50.066406 15.660156 50.222656 15.949219 49.898438 15.984375 L 48.6875 16 C 48.6875 16 48.363281 16.085938 48.429688 15.828125 L 48.414062 15.589844 C 48.414062 15.589844 48.398438 15.539062 48.601562 15.402344 Z M 49.746094 14.925781 C 49.746094 14.925781 49.335938 15.0625 49.488281 14.570312 C 49.488281 14.570312 49.335938 14.160156 49.746094 14.261719 L 51.007812 14.226562 C 51.007812 14.226562 51.347656 14.210938 51.277344 14.5 C 51.277344 14.5 51.414062 15.046875 50.972656 14.945312 Z M 51.210938 13.851562 C 51.210938 13.851562 50.785156 13.988281 50.800781 13.5625 C 50.800781 13.5625 50.664062 13.167969 51.09375 13.203125 L 51.976562 13.222656 C 51.976562 13.222656 52.441406 13.152344 52.320312 13.578125 C 52.320312 13.578125 52.472656 13.902344 52.046875 13.871094 Z M 52.96875 13.871094 C 52.96875 13.871094 52.675781 14.003906 52.796875 13.527344 C 52.796875 13.527344 52.695312 13.308594 53 13.324219 L 53.410156 13.324219 C 53.410156 13.324219 53.734375 13.460938 53.53125 13.597656 L 53.410156 13.800781 C 53.410156 13.800781 53.359375 13.886719 53.222656 13.871094 Z M 46.519531 12.984375 L 46.503906 12.847656 C 46.503906 12.847656 51.058594 12.402344 53.871094 12.796875 L 53.855469 12.933594 C 53.855469 12.933594 50.972656 12.503906 46.519531 12.984375 Z M 47.101562 13.273438 L 47.851562 13.238281 C 47.851562 13.238281 48.195312 13.1875 48.089844 13.546875 C 48.089844 13.546875 48.296875 13.921875 47.921875 13.902344 L 47.1875 13.886719 C 47.1875 13.886719 46.847656 14.003906 46.882812 13.613281 C 46.882812 13.613281 46.726562 13.257812 47.101562 13.273438 Z M 47.597656 15.488281 L 47.765625 15.4375 C 47.765625 15.4375 48.007812 15.4375 48.023438 15.609375 C 48.023438 15.609375 48.160156 16 47.921875 15.984375 C 47.921875 15.984375 47.734375 16.070312 47.648438 15.863281 C 47.648438 15.863281 47.425781 15.542969 47.597656 15.488281 Z M 48.105469 16.53125 L 48.789062 16.476562 C 48.789062 16.476562 49.164062 16.394531 49.164062 16.765625 C 49.164062 16.765625 49.402344 17.347656 48.910156 17.3125 C 48.910156 17.3125 48.261719 17.449219 48.125 17.109375 C 48.125 17.109375 47.765625 16.546875 48.105469 16.53125 Z M 49.828125 17.277344 C 49.828125 17.277344 49.523438 17.3125 49.574219 16.972656 C 49.574219 16.972656 49.472656 16.324219 49.949219 16.394531 C 49.949219 16.394531 50.476562 16.476562 50.9375 16.445312 C 50.9375 16.445312 51.378906 16.425781 51.332031 16.75 C 51.332031 16.75 51.414062 17.277344 51.105469 17.246094 Z M 50.714844 16.019531 C 50.714844 16.019531 50.375 16.121094 50.445312 15.640625 C 50.445312 15.640625 50.292969 15.457031 50.648438 15.386719 C 50.734375 15.371094 51.894531 15.402344 51.894531 15.402344 C 51.894531 15.402344 52.167969 15.351562 52.144531 15.625 C 52.144531 15.625 52.285156 16.019531 51.941406 16 Z M 51.6875 16.75 C 51.6875 16.75 51.671875 16.445312 52.078125 16.511719 C 52.078125 16.511719 52.386719 16.597656 52.25 16.835938 C 52.25 16.835938 51.894531 17.5 51.824219 17.277344 C 51.824219 17.277344 51.652344 17.160156 51.671875 17.042969 C 51.671875 17.042969 51.671875 16.800781 51.6875 16.75 Z M 45.824219 10.75 L 46.078125 10.765625 C 46.078125 10.765625 46.265625 10.800781 46.199219 11.023438 L 46.199219 11.550781 C 46.199219 11.550781 46.164062 11.722656 46.453125 11.773438 L 47.511719 11.773438 C 47.511719 11.773438 47.886719 11.839844 47.886719 11.328125 L 47.921875 10.730469 C 47.921875 10.730469 47.871094 10.527344 48.089844 10.527344 L 48.519531 10.542969 C 48.519531 10.542969 48.671875 10.511719 48.621094 10.765625 L 48.621094 11.378906 C 48.621094 11.378906 48.519531 11.671875 48.945312 11.703125 L 49.898438 11.671875 C 49.898438 11.671875 50.171875 11.804688 50.15625 11.296875 L 50.171875 10.714844 C 50.171875 10.714844 50.15625 10.527344 50.410156 10.542969 L 50.597656 10.527344 C 50.597656 10.527344 50.785156 10.511719 50.71875 10.835938 L 50.804688 11.535156 C 50.804688 11.535156 50.699219 11.789062 51.210938 11.773438 L 52.269531 11.738281 C 52.269531 11.738281 52.523438 11.789062 52.542969 11.347656 L 52.558594 10.816406 C 52.558594 10.816406 52.457031 10.628906 52.761719 10.628906 L 52.984375 10.613281 C 52.984375 10.613281 53.222656 10.613281 53.140625 10.953125 L 53.140625 11.535156 C 53.140625 11.535156 53.054688 11.769531 53.425781 11.804688 L 53.90625 11.839844 C 53.90625 11.839844 54.246094 11.789062 54.128906 12.128906 C 54.128906 12.128906 54.230469 12.402344 53.820312 12.316406 C 53.820312 12.316406 50.632812 12.042969 46.421875 12.351562 C 46.421875 12.351562 46.320312 12.453125 46.132812 12.113281 L 45.636719 10.953125 C 45.636719 10.953125 45.550781 10.730469 45.824219 10.75 Z M 37.078125 8.992188 C 37.078125 8.992188 36.566406 9.25 36.496094 8.550781 L 35.96875 6.503906 C 35.96875 6.503906 35.863281 6.265625 36.414062 6.265625 C 36.414062 6.265625 36.703125 6.164062 36.71875 6.417969 L 36.992188 7.425781 C 36.992188 7.425781 37.042969 7.664062 37.28125 7.613281 L 38.269531 7.441406 C 38.269531 7.441406 38.457031 7.253906 38.285156 6.945312 L 38.167969 6.0625 C 38.167969 6.0625 38.203125 5.875 38.558594 5.875 C 38.558594 5.875 38.867188 5.769531 38.917969 5.976562 L 39.140625 6.929688 C 39.140625 6.929688 39.191406 7.269531 39.53125 7.21875 L 40.621094 7.03125 C 40.621094 7.03125 40.914062 6.996094 40.828125 6.554688 L 40.691406 5.753906 C 40.691406 5.753906 40.605469 5.464844 40.894531 5.445312 C 40.894531 5.445312 41.308594 5.257812 41.339844 5.566406 L 41.542969 6.640625 C 41.542969 6.640625 41.578125 6.898438 41.886719 6.847656 L 42.738281 6.691406 C 42.738281 6.691406 42.910156 6.605469 42.839844 6.199219 L 42.722656 5.414062 C 42.722656 5.414062 42.738281 5.160156 43.011719 5.160156 C 43.011719 5.160156 43.539062 4.988281 43.574219 5.34375 L 43.691406 6.351562 C 43.691406 6.351562 43.726562 6.539062 44.066406 6.523438 L 45.007812 6.453125 C 45.007812 6.453125 45.226562 6.488281 45.277344 6.148438 L 45.15625 5.242188 C 45.15625 5.242188 45.089844 4.953125 45.5 4.96875 C 45.5 4.96875 45.910156 4.902344 45.941406 5.3125 L 46.046875 7.460938 C 46.046875 7.460938 46.078125 7.765625 45.722656 7.730469 C 45.71875 7.730469 39.449219 8.429688 37.078125 8.992188 Z M 38.1875 9.605469 C 38.1875 9.605469 37.894531 9.367188 38.390625 9.335938 C 38.390625 9.335938 42.3125 8.5 44.765625 8.449219 C 44.765625 8.449219 45.210938 8.378906 44.953125 8.722656 C 44.953125 8.722656 44.867188 9.285156 44.492188 9.316406 L 39.175781 10.066406 C 39.175781 10.066406 38.902344 10.066406 38.714844 9.980469 C 38.714844 9.980469 38.441406 9.933594 38.1875 9.605469 Z M 39.242188 11.039062 C 39.242188 11.039062 39.058594 10.359375 40.242188 10.402344 L 44.0625 9.949219 C 44.0625 9.949219 44.46875 9.71875 44.699219 10.496094 L 47.835938 18.402344 L 45.835938 18.585938 C 45.835938 18.585938 45.335938 18.722656 45.289062 18.175781 C 45.289062 18.175781 44.699219 13.585938 42.652344 13.765625 C 42.652344 13.765625 41.015625 13.722656 40.921875 18.632812 C 40.921875 18.632812 41.050781 19.425781 40.515625 19.40625 L 37.96875 19.859375 Z M 39.242188 11.039062 "/>
<path style=" stroke:none;fill-rule:evenodd;fill:rgb(0%,0%,0%);fill-opacity:1;" d="M 41.605469 18.949219 L 41.332031 19.042969 C 41.332031 19.042969 40.921875 14.722656 42.699219 14.085938 C 42.699219 14.085938 44.242188 13.632812 45.105469 18.449219 L 44.832031 18.496094 C 44.832031 18.496094 44.105469 14.175781 42.742188 14.539062 C 42.742188 14.539062 41.378906 14.632812 41.605469 18.949219 Z M 30.328125 15.242188 L 30.5 15.171875 C 30.722656 15.113281 30.613281 14.800781 30.613281 14.800781 L 30.382812 14.160156 C 30.203125 13.855469 30.578125 13.863281 30.578125 13.863281 L 30.875 13.734375 C 31.167969 13.652344 31.242188 13.96875 31.242188 13.96875 L 31.359375 14.433594 C 31.5625 14.824219 31.867188 14.605469 31.867188 14.605469 L 32.46875 14.386719 C 32.765625 14.328125 32.683594 14.089844 32.683594 14.089844 L 32.554688 13.453125 C 32.402344 13.160156 32.824219 13.085938 32.824219 13.085938 L 33.21875 12.980469 C 33.460938 12.894531 33.585938 13.265625 33.585938 13.265625 L 33.675781 13.523438 C 33.804688 14.023438 34.09375 13.832031 34.09375 13.832031 L 34.695312 13.644531 C 35.097656 13.496094 34.949219 13.214844 34.949219 13.214844 L 34.828125 12.835938 C 34.707031 12.601562 35.113281 12.519531 35.113281 12.519531 L 35.511719 12.378906 C 35.949219 12.269531 35.941406 12.703125 35.941406 12.703125 L 36.0625 13.097656 C 36.199219 13.617188 36.453125 13.414062 36.453125 13.414062 L 37.117188 13.21875 C 37.382812 13.09375 37.269531 12.78125 37.269531 12.78125 L 37.167969 12.25 C 37.214844 11.945312 37.621094 12.007812 37.621094 12.007812 L 37.929688 11.9375 C 38.132812 12.011719 38.03125 12.109375 38.03125 12.109375 L 37.871094 13.359375 C 37.789062 13.742188 37.660156 13.667969 37.660156 13.667969 C 33.527344 14.535156 30.539062 15.675781 30.539062 15.675781 C 30.167969 15.871094 30.191406 15.582031 30.191406 15.582031 C 29.984375 15.285156 30.328125 15.242188 30.328125 15.242188 Z M 34.464844 20.605469 C 34.378906 20.539062 34.351562 20.519531 34.347656 20.519531 C 34.253906 20.402344 34.1875 20.242188 34.445312 20.167969 C 34.445312 20.167969 35.027344 20.089844 35.183594 19.902344 C 35.183594 19.902344 35.75 19.773438 35.625 20.078125 C 35.582031 20.179688 35.765625 20.496094 35.472656 20.527344 L 34.777344 20.710938 C 34.777344 20.710938 34.742188 20.828125 34.464844 20.605469 Z M 34.480469 20.652344 C 34.480469 20.652344 34.433594 20.617188 34.386719 20.566406 C 34.425781 20.605469 34.480469 20.652344 34.480469 20.652344 Z M 34.605469 19.550781 C 34.320312 19.671875 34.257812 19.140625 34.257812 19.140625 C 34.117188 18.84375 34.550781 18.738281 34.550781 18.738281 C 35 18.640625 35.484375 18.414062 35.484375 18.414062 C 35.925781 18.21875 36.007812 18.867188 36.007812 18.867188 C 36.148438 19.183594 35.84375 19.234375 35.84375 19.234375 Z M 33.460938 18.585938 C 33.136719 18.699219 33.160156 18.285156 33.160156 18.285156 C 33.070312 18.023438 33.34375 18 33.34375 18 C 33.34375 18 34.449219 17.648438 34.535156 17.640625 C 34.894531 17.613281 34.804688 17.832031 34.804688 17.832031 C 35 18.269531 34.644531 18.265625 34.644531 18.265625 Z M 33.929688 19.785156 C 33.921875 20.015625 33.394531 19.472656 33.394531 19.472656 C 33.199219 19.28125 33.46875 19.117188 33.46875 19.117188 C 33.84375 18.9375 33.914062 19.238281 33.914062 19.238281 C 33.945312 19.28125 34.007812 19.511719 34.007812 19.511719 C 34.058594 19.621094 33.929688 19.785156 33.929688 19.785156 Z M 32.003906 17.53125 C 31.710938 17.316406 32.121094 17.199219 32.121094 17.199219 L 33.035156 16.917969 C 33.273438 16.761719 33.339844 16.992188 33.339844 16.992188 L 33.4375 17.335938 C 33.550781 17.550781 33.207031 17.578125 33.207031 17.578125 L 32.40625 17.824219 C 32.246094 17.886719 32.21875 17.789062 32.21875 17.789062 L 32.019531 17.582031 C 32.019531 17.582031 32.296875 17.75 32.003906 17.53125 Z M 31.890625 16.820312 L 31.644531 16.890625 C 31.515625 16.945312 31.445312 16.878906 31.445312 16.878906 L 31.273438 16.714844 C 31.039062 16.636719 31.3125 16.417969 31.3125 16.417969 L 31.707031 16.304688 C 31.996094 16.203125 31.960938 16.445312 31.960938 16.445312 C 32.203125 16.871094 31.890625 16.820312 31.890625 16.820312 Z M 33.570312 16.320312 L 32.773438 16.566406 C 32.375 16.714844 32.429688 16.363281 32.429688 16.363281 C 32.199219 15.988281 32.660156 15.925781 32.660156 15.925781 L 33.507812 15.664062 C 33.90625 15.515625 33.886719 15.929688 33.886719 15.929688 C 34.019531 16.332031 33.570312 16.320312 33.570312 16.320312 Z M 35.84375 15.703125 L 34.6875 16 C 34.1875 16.109375 34.273438 15.800781 34.273438 15.800781 C 34.042969 15.421875 34.613281 15.3125 34.613281 15.3125 L 35.773438 15.03125 C 36.121094 14.933594 36.089844 15.332031 36.089844 15.332031 C 36.246094 15.679688 35.84375 15.703125 35.84375 15.703125 Z M 37.148438 16.484375 L 36.035156 16.75 C 35.722656 16.894531 35.78125 16.609375 35.78125 16.609375 L 35.746094 16.355469 C 35.519531 16.0625 35.921875 16.039062 35.921875 16.039062 L 37.027344 15.757812 C 37.367188 15.695312 37.289062 16.160156 37.289062 16.160156 C 37.4375 16.4375 37.148438 16.484375 37.148438 16.484375 Z M 35.351562 17.390625 C 35.351562 17.390625 36.449219 17.074219 36.507812 17.09375 C 36.738281 17.167969 36.738281 17.222656 36.738281 17.222656 L 36.789062 17.457031 C 36.925781 17.683594 36.59375 17.691406 36.59375 17.691406 L 35.421875 18.007812 C 35.101562 18.0625 35.171875 17.742188 35.171875 17.742188 C 35.058594 17.417969 35.351562 17.390625 35.351562 17.390625 Z M 35.09375 16.308594 C 35.460938 16.097656 35.425781 16.535156 35.425781 16.535156 C 35.707031 16.96875 35.277344 16.949219 35.277344 16.949219 L 34.101562 17.304688 C 33.703125 17.523438 33.6875 16.960938 33.6875 16.960938 C 33.539062 16.703125 33.871094 16.625 33.871094 16.625 Z M 36.21875 19.605469 L 37.078125 19.394531 C 37.078125 19.394531 37.363281 19.277344 37.332031 19.589844 C 37.332031 19.589844 37.457031 19.835938 37.105469 20.042969 C 37.105469 20.042969 36.335938 20.191406 36.289062 20.222656 C 36.242188 20.253906 36.003906 20.46875 35.964844 20.140625 C 35.964844 20.140625 35.769531 19.714844 36.21875 19.605469 Z M 36.738281 19.011719 C 36.273438 19.179688 36.34375 18.558594 36.34375 18.558594 C 36.238281 18.199219 36.621094 18.175781 36.621094 18.175781 L 37.292969 18.039062 C 37.625 17.960938 37.433594 18.597656 37.433594 18.597656 C 37.398438 18.964844 36.738281 19.011719 36.738281 19.011719 Z M 37.324219 17.460938 C 37.097656 17.542969 37.121094 17.128906 37.121094 17.128906 C 37.089844 16.960938 37.320312 16.894531 37.320312 16.894531 L 37.496094 16.894531 C 37.675781 16.898438 37.550781 17.269531 37.550781 17.269531 C 37.527344 17.492188 37.324219 17.460938 37.324219 17.460938 Z M 37.449219 15.246094 L 36.75 15.464844 C 36.394531 15.582031 36.488281 15.167969 36.488281 15.167969 C 36.289062 14.851562 36.632812 14.804688 36.632812 14.804688 L 37.363281 14.632812 C 37.71875 14.511719 37.667969 14.898438 37.667969 14.898438 C 37.808594 15.265625 37.449219 15.246094 37.449219 15.246094 Z M 30.691406 16.171875 L 30.636719 16.042969 C 33.234375 14.890625 37.730469 14.0625 37.730469 14.0625 L 37.753906 14.199219 C 33.34375 14.964844 30.691406 16.171875 30.691406 16.171875 Z M 21.964844 14.085938 L 20.921875 12.0625 C 20.921875 12.0625 20.601562 11.789062 20.941406 11.628906 C 20.941406 11.628906 21.308594 11.3125 21.421875 11.699219 L 22.035156 12.789062 L 23.261719 12.199219 L 22.671875 10.8125 C 22.671875 10.8125 22.671875 10.765625 22.988281 10.628906 C 22.988281 10.628906 23.195312 10.425781 23.285156 10.652344 L 23.808594 11.855469 L 25.148438 11.21875 L 24.761719 10.199219 C 24.761719 10.199219 24.582031 9.949219 24.808594 9.855469 L 25.011719 9.71875 C 25.011719 9.71875 25.148438 9.652344 25.21875 9.855469 L 25.761719 10.96875 L 27.171875 10.402344 L 26.785156 9.449219 C 26.785156 9.449219 26.605469 9.21875 26.855469 9.105469 L 27.171875 8.949219 C 27.171875 8.949219 27.332031 8.742188 27.46875 9.105469 L 28.265625 11.265625 C 28.46875 11.628906 28.171875 11.675781 28.171875 11.675781 L 22.535156 14.175781 C 22.535156 14.175781 22.148438 14.539062 21.964844 14.085938 Z M 23.46875 15.222656 C 23.46875 15.222656 22.875 15.128906 22.511719 14.789062 C 22.511719 14.789062 24.898438 13.699219 28.011719 12.3125 C 28.011719 12.3125 28.171875 12.882812 27.988281 13.175781 C 27.988281 13.175781 23.945312 14.902344 23.46875 15.222656 Z M 26.46875 17.996094 L 24.738281 15.289062 L 27.71875 13.925781 C 27.71875 13.925781 28.035156 13.652344 28.421875 14.269531 L 33.855469 20.996094 L 31.46875 22.066406 C 31.46875 22.066406 31.332031 22.132812 31.105469 21.792969 C 31.105469 21.792969 30.035156 19.746094 28.46875 18.769531 C 28.46875 18.769531 28.101562 18.222656 26.808594 18.199219 C 26.808594 18.199219 26.648438 18.382812 26.46875 17.996094 Z M 26.46875 17.996094 "/>
<path style=" stroke:none;fill-rule:evenodd;fill:rgb(0%,0%,0%);fill-opacity:1;" d="M 26.921875 18.882812 L 26.785156 18.699219 C 28.421875 18.152344 30.992188 22.199219 30.992188 22.199219 L 30.855469 22.289062 C 28.171875 18.265625 26.921875 18.882812 26.921875 18.882812 Z M 70.066406 27.542969 C 48.519531 17.722656 30.105469 27.679688 30.105469 27.679688 L 29.832031 27.40625 C 51.519531 17.449219 70.203125 27.203125 70.203125 27.203125 Z M 70.066406 27.542969 "/>
<path style=" stroke:none;fill-rule:evenodd;fill:rgb(0%,0%,0%);fill-opacity:1;" d="M 29.832031 26.792969 C 29.832031 26.792969 47.5625 16.835938 70.066406 26.519531 L 70.066406 26.859375 C 70.066406 26.859375 50.972656 17.042969 29.898438 27.066406 Z M 29.832031 26.792969 "/>
<path style=" stroke:none;fill-rule:evenodd;fill:rgb(0%,0%,0%);fill-opacity:1;" d="M 69.792969 25.972656 C 69.792969 25.972656 51.175781 16.835938 30.515625 26.042969 L 29.832031 24.609375 C 29.832031 24.609375 49.265625 14.859375 70.40625 24.679688 Z M 69.792969 25.972656 "/>
<path style=" stroke:none;fill-rule:evenodd;fill:rgb(0%,0%,0%);fill-opacity:1;" d="M 71.089844 24.132812 C 71.089844 24.132812 51.449219 13.765625 29.011719 24.269531 L 28.945312 23.996094 C 28.945312 23.996094 49.0625 13.496094 71.160156 23.859375 Z M 73.566406 18.949219 C 73.566406 18.949219 72.316406 18.335938 69.632812 22.359375 L 69.5 22.269531 C 69.5 22.269531 72.066406 18.222656 73.707031 18.769531 Z M 73.566406 18.949219 "/>
<path style=" stroke:none;fill-rule:evenodd;fill:rgb(0%,0%,0%);fill-opacity:1;" d="M 74.023438 18.0625 C 73.839844 18.449219 73.679688 18.269531 73.679688 18.269531 C 72.386719 18.289062 72.023438 18.835938 72.023438 18.835938 C 70.453125 19.8125 69.386719 21.859375 69.386719 21.859375 C 69.15625 22.203125 69.023438 22.132812 69.023438 22.132812 L 66.632812 21.0625 L 72.066406 14.335938 C 72.453125 13.722656 72.773438 13.996094 72.773438 13.996094 L 75.75 15.359375 Z M 76.382812 15.023438 C 75.960938 14.734375 72.4375 13.25 72.4375 13.25 C 72.261719 12.964844 72.355469 12.386719 72.355469 12.386719 C 75.074219 13.585938 77.160156 14.535156 77.160156 14.535156 C 76.875 14.898438 76.382812 15.023438 76.382812 15.023438 Z M 78.84375 11.835938 L 77.792969 13.859375 C 77.613281 14.3125 77.226562 13.949219 77.226562 13.949219 L 71.589844 11.449219 C 71.589844 11.449219 71.292969 11.402344 71.5 11.039062 L 72.296875 8.878906 C 72.429688 8.515625 72.589844 8.71875 72.589844 8.71875 L 72.90625 8.878906 C 73.160156 8.992188 72.976562 9.222656 72.976562 9.222656 L 72.589844 10.175781 L 74 10.742188 L 74.542969 9.628906 C 74.613281 9.425781 74.75 9.496094 74.75 9.496094 L 75.25 9.699219 C 75.277344 9.835938 75.242188 9.976562 75.15625 10.085938 L 74.792969 11.085938 L 75.953125 11.628906 L 76.476562 10.425781 C 76.566406 10.199219 76.769531 10.402344 76.769531 10.402344 C 77.089844 10.539062 77.089844 10.585938 77.089844 10.585938 L 76.5 11.972656 L 77.722656 12.5625 L 78.339844 11.472656 C 78.457031 11.085938 78.816406 11.402344 78.816406 11.402344 C 79.160156 11.5625 78.84375 11.835938 78.84375 11.835938 Z M 78.84375 11.835938 "/>
<path style=" stroke:none;fill-rule:evenodd;fill:rgb(97.647059%,86.27451%,18.823529%);fill-opacity:1;" d="M 63.496094 8.5 L 63.949219 6.453125 C 63.949219 6.453125 64.117188 6.199219 63.585938 6.128906 C 63.585938 6.128906 63.078125 5.941406 63.058594 6.199219 L 62.839844 7.253906 C 62.839844 7.253906 62.632812 7.578125 62.394531 7.527344 L 61.722656 7.390625 C 61.722656 7.390625 61.542969 7.238281 61.625 6.898438 L 61.730469 6.042969 C 61.730469 6.042969 61.800781 5.734375 61.441406 5.734375 C 61.441406 5.734375 60.824219 5.566406 60.773438 5.769531 L 60.652344 6.519531 C 60.652344 6.519531 60.707031 7.21875 60.195312 7.132812 L 59.785156 7.050781 C 59.785156 7.050781 59.394531 7.03125 59.480469 6.589844 L 59.546875 5.890625 C 59.546875 5.890625 59.753906 5.378906 59.460938 5.359375 C 59.460938 5.359375 58.78125 5.191406 58.746094 5.496094 L 58.59375 6.519531 C 58.59375 6.519531 58.414062 6.84375 58.105469 6.792969 L 57.253906 6.640625 C 57.253906 6.640625 57.085938 6.554688 57.152344 6.144531 L 57.269531 5.359375 C 57.269531 5.359375 57.253906 5.105469 56.980469 5.105469 C 56.980469 5.105469 56.453125 4.933594 56.421875 5.292969 L 56.300781 6.296875 C 56.300781 6.296875 56.265625 6.484375 55.925781 6.46875 L 54.988281 6.402344 C 54.988281 6.402344 54.765625 6.4375 54.714844 6.09375 L 54.832031 5.191406 C 54.832031 5.191406 54.902344 4.898438 54.496094 4.917969 C 54.496094 4.917969 54.082031 4.851562 54.050781 5.257812 L 53.949219 7.40625 C 53.949219 7.40625 53.914062 7.714844 54.273438 7.679688 C 54.273438 7.679688 60.332031 8.328125 62.703125 8.890625 C 62.703125 8.890625 63.296875 9.179688 63.496094 8.5 Z M 30.539062 15.675781 C 30.539062 15.675781 33.527344 14.535156 37.660156 13.667969 C 37.660156 13.667969 37.789062 13.738281 37.875 13.359375 L 38.03125 12.109375 C 38.03125 12.109375 38.132812 12.011719 37.929688 11.9375 L 37.621094 12.007812 C 37.621094 12.007812 37.214844 11.945312 37.167969 12.25 L 37.269531 12.78125 C 37.269531 12.78125 37.382812 13.089844 37.117188 13.21875 L 36.453125 13.414062 C 36.453125 13.414062 36.199219 13.617188 36.0625 13.097656 L 35.941406 12.699219 C 35.941406 12.699219 35.949219 12.269531 35.511719 12.378906 L 35.113281 12.519531 C 35.113281 12.519531 34.710938 12.601562 34.828125 12.832031 L 34.949219 13.210938 C 34.949219 13.210938 35.097656 13.496094 34.695312 13.644531 L 34.09375 13.832031 C 34.09375 13.832031 33.804688 14.023438 33.679688 13.523438 L 33.585938 13.265625 C 33.585938 13.265625 33.460938 12.894531 33.222656 12.980469 L 32.824219 13.085938 C 32.824219 13.085938 32.402344 13.160156 32.554688 13.453125 L 32.683594 14.089844 C 32.683594 14.089844 32.765625 14.328125 32.46875 14.386719 L 31.867188 14.605469 C 31.867188 14.605469 31.5625 14.824219 31.363281 14.433594 L 31.242188 13.96875 C 31.242188 13.96875 31.167969 13.652344 30.875 13.734375 L 30.578125 13.859375 C 30.578125 13.859375 30.203125 13.855469 30.382812 14.160156 L 30.613281 14.800781 C 30.613281 14.800781 30.722656 15.109375 30.5 15.171875 L 30.328125 15.242188 C 30.328125 15.242188 29.984375 15.285156 30.195312 15.578125 C 30.191406 15.578125 30.171875 15.871094 30.539062 15.675781 Z M 55.5 9.265625 L 60.816406 10.015625 C 60.816406 10.015625 61.089844 10.015625 61.28125 9.933594 C 61.28125 9.933594 61.550781 9.878906 61.808594 9.554688 C 61.808594 9.554688 62.097656 9.316406 61.605469 9.285156 C 61.605469 9.285156 57.679688 8.445312 55.226562 8.398438 C 55.226562 8.398438 54.785156 8.328125 55.039062 8.667969 C 55.039062 8.667969 55.121094 9.230469 55.5 9.265625 Z M 48.84375 18.402344 C 48.84375 18.402344 49.625 18.335938 49.675781 18.351562 C 49.726562 18.371094 50.015625 18.507812 49.964844 18.183594 C 49.964844 18.183594 50.035156 17.722656 49.574219 17.738281 L 48.6875 17.773438 C 48.6875 17.773438 48.378906 17.738281 48.5 18.03125 C 48.5 18.03125 48.449219 18.304688 48.84375 18.402344 Z M 58.714844 19.152344 C 58.714844 19.152344 59.199219 14.84375 57.4375 14.175781 C 57.4375 14.175781 55.898438 13.695312 54.953125 18.5 L 55.222656 18.550781 C 55.222656 18.550781 56.027344 14.242188 57.382812 14.628906 C 57.382812 14.628906 58.746094 14.742188 58.441406 19.058594 Z M 51.429688 17.789062 C 51.429688 17.789062 50.855469 17.875 50.648438 17.738281 C 50.648438 17.738281 50.070312 17.773438 50.273438 18.03125 C 50.339844 18.117188 50.257812 18.472656 50.546875 18.421875 L 51.261719 18.402344 C 51.261719 18.402344 51.332031 18.507812 51.535156 18.21875 C 51.597656 18.125 51.621094 18.097656 51.625 18.105469 C 51.679688 17.964844 51.703125 17.789062 51.429688 17.789062 Z M 37.667969 14.898438 C 37.667969 14.898438 37.71875 14.511719 37.363281 14.632812 L 36.632812 14.804688 C 36.632812 14.804688 36.289062 14.851562 36.488281 15.164062 C 36.488281 15.164062 36.394531 15.582031 36.75 15.460938 L 37.449219 15.242188 C 37.449219 15.246094 37.808594 15.265625 37.667969 14.898438 Z M 33.507812 15.664062 L 32.660156 15.925781 C 32.660156 15.925781 32.199219 15.988281 32.429688 16.363281 C 32.429688 16.363281 32.375 16.714844 32.777344 16.566406 L 33.574219 16.320312 C 33.574219 16.320312 34.019531 16.332031 33.886719 15.929688 C 33.886719 15.929688 33.910156 15.515625 33.507812 15.664062 Z M 37.550781 17.273438 C 37.550781 17.273438 37.675781 16.898438 37.5 16.898438 L 37.320312 16.894531 C 37.320312 16.894531 37.089844 16.960938 37.121094 17.128906 C 37.121094 17.128906 37.097656 17.542969 37.324219 17.460938 C 37.324219 17.460938 37.527344 17.492188 37.550781 17.273438 Z M 37.730469 14.0625 C 37.730469 14.0625 33.234375 14.890625 30.636719 16.042969 L 30.691406 16.171875 C 30.691406 16.171875 33.34375 14.964844 37.753906 14.199219 Z M 33.6875 16.960938 C 33.6875 16.960938 33.707031 17.523438 34.101562 17.304688 L 35.277344 16.949219 C 35.277344 16.949219 35.707031 16.96875 35.425781 16.535156 C 35.425781 16.535156 35.460938 16.097656 35.09375 16.308594 L 33.871094 16.625 C 33.871094 16.625 33.539062 16.703125 33.6875 16.960938 Z M 37.027344 15.757812 L 35.921875 16.039062 C 35.921875 16.039062 35.519531 16.0625 35.746094 16.355469 L 35.78125 16.609375 C 35.78125 16.609375 35.722656 16.894531 36.035156 16.75 L 37.148438 16.484375 C 37.148438 16.484375 37.433594 16.4375 37.289062 16.160156 C 37.289062 16.160156 37.367188 15.695312 37.027344 15.757812 Z M 37.292969 18.039062 L 36.621094 18.175781 C 36.621094 18.175781 36.238281 18.199219 36.34375 18.558594 C 36.34375 18.558594 36.273438 19.183594 36.738281 19.015625 C 36.738281 19.015625 37.398438 18.964844 37.433594 18.601562 C 37.4375 18.601562 37.625 17.960938 37.292969 18.039062 Z M 35.773438 15.035156 L 34.613281 15.3125 C 34.613281 15.3125 34.042969 15.421875 34.273438 15.800781 C 34.273438 15.800781 34.1875 16.109375 34.6875 16.003906 L 35.84375 15.703125 C 35.84375 15.703125 36.246094 15.679688 36.089844 15.332031 C 36.089844 15.332031 36.121094 14.933594 35.773438 15.035156 Z M 34.804688 17.828125 C 34.804688 17.828125 34.894531 17.613281 34.535156 17.640625 C 34.449219 17.648438 33.34375 18 33.34375 18 C 33.34375 18 33.066406 18.023438 33.160156 18.285156 C 33.160156 18.285156 33.136719 18.695312 33.460938 18.585938 L 34.644531 18.265625 C 34.644531 18.265625 35 18.269531 34.804688 17.828125 Z M 31.707031 16.304688 L 31.3125 16.417969 C 31.3125 16.417969 31.039062 16.636719 31.273438 16.710938 L 31.445312 16.878906 C 31.445312 16.878906 31.515625 16.945312 31.644531 16.890625 L 31.890625 16.820312 C 31.890625 16.820312 32.203125 16.871094 31.960938 16.445312 C 31.960938 16.445312 31.996094 16.203125 31.707031 16.304688 Z M 35.421875 18.007812 L 36.589844 17.6875 C 36.589844 17.6875 36.925781 17.683594 36.789062 17.457031 L 36.738281 17.21875 C 36.738281 17.21875 36.738281 17.167969 36.507812 17.09375 C 36.449219 17.074219 35.351562 17.386719 35.351562 17.386719 C 35.351562 17.386719 35.058594 17.417969 35.167969 17.742188 C 35.167969 17.742188 35.101562 18.0625 35.421875 18.007812 Z M 70.066406 27.542969 L 70.203125 27.203125 C 70.203125 27.203125 51.519531 17.449219 29.832031 27.40625 L 30.105469 27.679688 C 30.105469 27.679688 48.519531 17.722656 70.066406 27.542969 Z M 32.21875 17.789062 C 32.21875 17.789062 32.246094 17.886719 32.40625 17.824219 L 33.207031 17.578125 C 33.207031 17.578125 33.554688 17.550781 33.4375 17.335938 L 33.339844 16.992188 C 33.339844 16.992188 33.273438 16.761719 33.035156 16.917969 L 32.121094 17.199219 C 32.121094 17.199219 31.710938 17.316406 32.003906 17.53125 C 32.300781 17.75 32.019531 17.582031 32.019531 17.582031 Z M 33.46875 19.117188 C 33.46875 19.117188 33.199219 19.28125 33.394531 19.476562 C 33.394531 19.476562 33.921875 20.015625 33.929688 19.785156 C 33.929688 19.785156 34.058594 19.621094 34.007812 19.511719 C 34.007812 19.511719 33.945312 19.28125 33.914062 19.238281 C 33.914062 19.238281 33.84375 18.9375 33.46875 19.117188 Z M 30.855469 22.289062 L 30.992188 22.199219 C 30.992188 22.199219 28.421875 18.152344 26.785156 18.699219 L 26.921875 18.882812 C 26.921875 18.882812 28.171875 18.265625 30.855469 22.289062 Z M 36.007812 18.867188 C 36.007812 18.867188 35.925781 18.21875 35.484375 18.414062 C 35.484375 18.414062 35 18.640625 34.550781 18.734375 C 34.550781 18.734375 34.117188 18.839844 34.257812 19.140625 C 34.257812 19.140625 34.320312 19.667969 34.605469 19.550781 L 35.84375 19.234375 C 35.84375 19.234375 36.148438 19.179688 36.007812 18.867188 Z M 67.175781 18.3125 C 67.175781 18.3125 66.929688 18.648438 67.164062 18.703125 C 67.164062 18.703125 67.316406 18.839844 67.460938 18.667969 C 67.460938 18.667969 67.765625 18.421875 67.617188 18.324219 L 67.46875 18.226562 C 67.46875 18.226562 67.242188 18.15625 67.175781 18.3125 Z M 66.878906 16.421875 C 66.878906 16.421875 67.230469 16.617188 67.289062 16.246094 C 67.289062 16.246094 67.53125 15.925781 67.1875 15.820312 L 66.0625 15.425781 C 66.0625 15.425781 65.523438 15.207031 65.511719 15.648438 C 65.511719 15.648438 65.269531 15.859375 65.75 16.039062 Z M 65.117188 15.546875 C 65.117188 15.546875 65.363281 15.207031 64.945312 15.117188 L 64.089844 14.875 C 64.089844 14.875 63.671875 14.675781 63.660156 15.117188 C 63.660156 15.117188 63.417969 15.382812 63.835938 15.472656 L 64.640625 15.703125 C 64.640625 15.703125 65.007812 15.957031 65.117188 15.546875 Z M 63.535156 16.984375 C 63.535156 16.984375 63.289062 16.859375 63.226562 17.125 C 63.226562 17.125 62.980469 17.457031 63.3125 17.542969 L 64.480469 17.917969 C 64.480469 17.917969 64.777344 18.117188 64.851562 17.636719 C 64.851562 17.636719 65.046875 17.503906 64.730469 17.335938 C 64.652344 17.292969 63.535156 16.984375 63.535156 16.984375 Z M 66.078125 16.890625 C 66.078125 16.890625 66.34375 16.542969 65.921875 16.519531 L 64.726562 16.121094 C 64.726562 16.121094 64.40625 16.003906 64.386719 16.300781 C 64.386719 16.300781 64.09375 16.78125 64.546875 16.816406 L 65.730469 17.15625 C 65.730469 17.15625 66.078125 17.410156 66.078125 16.890625 Z M 69.019531 22.132812 C 69.019531 22.132812 69.15625 22.199219 69.386719 21.859375 C 69.386719 21.859375 70.453125 19.8125 72.023438 18.835938 C 72.023438 18.835938 72.386719 18.289062 73.679688 18.265625 C 73.679688 18.265625 73.839844 18.449219 74.023438 18.0625 L 75.75 15.359375 L 72.773438 13.996094 C 72.773438 13.996094 72.453125 13.722656 72.066406 14.335938 L 66.632812 21.0625 Z M 71.292969 16.425781 L 71.679688 15.402344 C 71.792969 15.039062 72.023438 15.246094 72.023438 15.246094 L 72.453125 15.382812 C 72.773438 15.519531 72.542969 15.835938 72.542969 15.835938 L 72.183594 16.8125 C 72.113281 17.109375 71.839844 16.972656 71.839844 16.972656 L 71.363281 16.789062 C 71.113281 16.722656 71.292969 16.425781 71.292969 16.425781 Z M 77.792969 13.859375 L 78.84375 11.835938 C 78.84375 11.835938 79.160156 11.5625 78.820312 11.402344 C 78.820312 11.402344 78.457031 11.085938 78.339844 11.472656 L 77.726562 12.5625 L 76.5 11.972656 L 77.089844 10.585938 C 77.089844 10.585938 77.089844 10.539062 76.773438 10.402344 C 76.773438 10.402344 76.566406 10.199219 76.480469 10.425781 L 75.957031 11.628906 L 74.792969 11.085938 L 75.160156 10.085938 C 75.160156 10.085938 75.296875 9.925781 75.25 9.695312 L 74.75 9.492188 C 74.75 9.492188 74.613281 9.425781 74.546875 9.628906 L 74 10.742188 L 72.589844 10.175781 L 72.976562 9.21875 C 72.976562 9.21875 73.160156 8.992188 72.910156 8.878906 L 72.589844 8.71875 C 72.589844 8.71875 72.429688 8.515625 72.296875 8.878906 L 71.5 11.039062 C 71.292969 11.402344 71.589844 11.449219 71.589844 11.449219 L 77.226562 13.949219 C 77.226562 13.949219 77.613281 14.3125 77.792969 13.859375 Z M 72.4375 13.246094 C 72.4375 13.246094 75.960938 14.730469 76.382812 15.023438 C 76.382812 15.023438 76.875 14.894531 77.160156 14.535156 C 77.160156 14.535156 75.074219 13.585938 72.355469 12.386719 C 72.355469 12.386719 72.261719 12.964844 72.4375 13.246094 Z M 62.84375 16.328125 L 63.648438 16.558594 C 63.648438 16.558594 63.953125 16.722656 63.976562 16.480469 L 64.078125 16.136719 C 64.078125 16.136719 64.148438 15.90625 63.863281 15.910156 L 62.945312 15.648438 C 62.945312 15.648438 62.535156 15.523438 62.664062 15.863281 C 62.792969 16.207031 62.652344 15.914062 62.652344 15.914062 L 62.707031 16.199219 C 62.707031 16.199219 62.675781 16.296875 62.84375 16.328125 Z M 67.84375 17.589844 C 67.84375 17.589844 68.164062 17.242188 67.847656 17.109375 L 66.765625 16.746094 C 66.765625 16.746094 66.414062 16.546875 66.445312 16.914062 L 66.335938 17.148438 C 66.335938 17.148438 66.132812 17.351562 66.472656 17.402344 L 67.550781 17.785156 C 67.550781 17.785156 67.816406 17.90625 67.84375 17.589844 Z M 69.433594 16.117188 C 69.433594 16.117188 65.210938 14.359375 62.40625 13.914062 L 62.382812 14.050781 C 62.382812 14.050781 65.261719 14.484375 69.378906 16.242188 Z M 65.273438 18.125 L 66.425781 18.496094 C 66.425781 18.496094 66.710938 18.671875 66.71875 18.40625 L 66.804688 18.183594 C 66.804688 18.183594 66.835938 18.136719 66.679688 17.949219 C 66.640625 17.898438 65.550781 17.566406 65.550781 17.566406 C 65.550781 17.566406 65.289062 17.433594 65.203125 17.765625 C 65.203125 17.765625 64.972656 17.996094 65.273438 18.125 Z M 63.050781 18.800781 C 63.050781 18.800781 63.25 18.734375 63.269531 18.617188 C 63.269531 18.617188 63.335938 18.386719 63.335938 18.335938 C 63.335938 18.335938 63.441406 18.046875 63.03125 17.992188 C 63.03125 17.992188 62.710938 17.980469 62.773438 18.25 C 62.773438 18.25 62.921875 18.992188 63.050781 18.800781 Z M 68.851562 16.742188 C 68.851562 16.742188 69.101562 16.441406 68.738281 16.347656 L 68.03125 16.097656 C 68.03125 16.097656 67.71875 15.949219 67.714844 16.320312 C 67.714844 16.320312 67.40625 16.621094 67.773438 16.714844 L 68.476562 16.910156 C 68.476562 16.910156 68.769531 17.125 68.851562 16.742188 Z M 66.640625 19.71875 C 66.640625 19.71875 67.148438 19.285156 66.824219 19.171875 L 66.1875 18.921875 C 66.1875 18.921875 65.851562 18.730469 65.742188 19.089844 C 65.742188 19.089844 65.34375 19.574219 65.828125 19.683594 C 65.828125 19.683594 66.410156 20.003906 66.640625 19.71875 Z M 62.550781 15.011719 C 62.550781 15.011719 62.574219 15.105469 62.710938 15.128906 L 62.957031 15.207031 C 62.957031 15.207031 63.195312 15.421875 63.21875 14.929688 C 63.21875 14.929688 63.378906 14.746094 63.082031 14.671875 L 62.691406 14.554688 C 62.691406 14.554688 62.34375 14.589844 62.496094 14.78125 Z M 62.59375 13.472656 C 62.59375 13.472656 65.722656 14.144531 69.660156 15.667969 C 69.660156 15.667969 69.730469 15.796875 70.007812 15.523438 L 70.929688 14.675781 C 70.929688 14.675781 71.179688 14.449219 70.882812 14.222656 L 70.589844 14.15625 C 70.589844 14.15625 70.261719 14.230469 70.261719 14.460938 L 70.019531 14.835938 C 70.019531 14.835938 69.859375 15.074219 69.566406 15.039062 L 69.15625 14.878906 C 69.15625 14.878906 68.792969 14.8125 68.816406 14.359375 L 68.976562 13.8125 C 68.976562 13.8125 69.25 13.5625 68.59375 13.433594 L 68.183594 13.328125 C 68.183594 13.328125 68.046875 13.25 68.019531 13.507812 L 67.84375 14.097656 C 67.84375 14.097656 67.855469 14.402344 67.4375 14.3125 L 66.535156 14 C 66.535156 14 66.234375 14.050781 66.398438 13.566406 L 66.550781 13.007812 C 66.550781 13.007812 66.625 12.832031 66.375 12.773438 L 66.199219 12.703125 C 66.199219 12.703125 65.503906 12.324219 65.476562 12.652344 L 65.203125 13.359375 C 65.203125 13.359375 65.136719 13.605469 64.726562 13.472656 L 64.339844 13.335938 C 64.339844 13.335938 63.988281 13.347656 64.101562 12.917969 L 64.238281 12.40625 C 64.238281 12.40625 64.394531 12.257812 64.097656 12.167969 L 63.890625 12.085938 C 63.890625 12.085938 63.515625 11.9375 63.496094 12.289062 L 63.363281 12.902344 C 63.363281 12.902344 63.34375 13.160156 62.976562 13.085938 L 62.65625 12.992188 C 62.65625 12.992188 62.339844 12.839844 62.355469 13.203125 C 62.355469 13.203125 62.179688 13.433594 62.59375 13.472656 Z M 34.464844 20.605469 C 34.742188 20.828125 34.777344 20.710938 34.777344 20.710938 L 35.472656 20.527344 C 35.765625 20.496094 35.582031 20.179688 35.625 20.078125 C 35.75 19.773438 35.183594 19.902344 35.183594 19.902344 C 35.023438 20.089844 34.445312 20.167969 34.445312 20.167969 C 34.1875 20.242188 34.253906 20.402344 34.347656 20.519531 C 34.351562 20.519531 34.378906 20.539062 34.464844 20.605469 Z M 52.847656 14.296875 L 51.894531 14.277344 C 51.621094 14.191406 51.621094 14.433594 51.621094 14.433594 L 51.621094 14.789062 C 51.570312 15.03125 51.910156 14.960938 51.910156 14.960938 L 52.746094 14.976562 C 52.914062 14.992188 52.914062 14.890625 52.914062 14.890625 L 53.050781 14.636719 C 53.050781 14.636719 52.832031 14.875 53.050781 14.585938 C 53.273438 14.296875 52.847656 14.296875 52.847656 14.296875 Z M 52.847656 14.296875 "/>
<path style=" stroke:none;fill-rule:evenodd;fill:rgb(29.803922%,41.176471%,68.627451%);fill-opacity:1;" d="M 51.625 18.105469 C 51.617188 18.121094 51.609375 18.136719 51.601562 18.152344 C 51.613281 18.125 51.625 18.109375 51.625 18.105469 Z M 51.625 18.105469 "/>
<path style=" stroke:none;fill-rule:evenodd;fill:rgb(97.647059%,86.27451%,18.823529%);fill-opacity:1;" d="M 63.054688 19.78125 C 63.164062 20.117188 63.261719 20.039062 63.261719 20.039062 L 63.941406 20.265625 C 64.203125 20.398438 64.226562 20.03125 64.316406 19.96875 C 64.585938 19.789062 64.042969 19.585938 64.042969 19.585938 C 63.808594 19.652344 63.277344 19.402344 63.277344 19.402344 C 63.019531 19.324219 62.988281 19.5 63.003906 19.648438 C 63.003906 19.640625 63.019531 19.667969 63.054688 19.78125 Z M 29.832031 26.792969 L 29.898438 27.066406 C 50.972656 17.042969 70.066406 26.859375 70.066406 26.859375 L 70.066406 26.519531 C 47.5625 16.835938 29.832031 26.792969 29.832031 26.792969 Z M 69.5 22.269531 L 69.632812 22.359375 C 72.316406 18.335938 73.566406 18.949219 73.566406 18.949219 L 73.707031 18.769531 C 72.066406 18.222656 69.5 22.269531 69.5 22.269531 Z M 64.792969 20.457031 C 64.847656 20.453125 65.578125 20.746094 65.578125 20.746094 C 65.980469 20.765625 66.011719 20.488281 66.011719 20.488281 C 66.210938 20.246094 65.90625 20.191406 65.90625 20.191406 L 65.070312 19.898438 C 64.632812 19.746094 64.566406 20.207031 64.566406 20.207031 C 64.417969 20.503906 64.738281 20.457031 64.792969 20.457031 Z M 64.792969 20.457031 "/>
<path style=" stroke:none;fill-rule:evenodd;fill:rgb(97.647059%,86.27451%,18.823529%);fill-opacity:1;" d="M 29.832031 24.609375 L 30.515625 26.042969 C 51.175781 16.835938 69.792969 25.972656 69.792969 25.972656 L 70.40625 24.679688 C 49.265625 14.859375 29.832031 24.609375 29.832031 24.609375 Z M 29.832031 24.609375 "/>
<path style=" stroke:none;fill-rule:evenodd;fill:rgb(0%,0%,0%);fill-opacity:1;" d="M 55.804688 12.976562 C 55.804688 12.976562 56.347656 13.121094 56.398438 12.757812 L 56.597656 11.855469 C 56.597656 11.855469 56.648438 11.445312 56.378906 11.394531 L 56.058594 11.34375 C 56.058594 11.34375 55.742188 11.246094 55.644531 11.609375 L 55.449219 12.46875 C 55.449219 12.46875 55.484375 13.015625 55.804688 12.976562 Z M 55.804688 12.976562 "/>
<path style=" stroke:none;fill-rule:evenodd;fill:rgb(29.803922%,41.176471%,68.627451%);fill-opacity:1;" d="M 63.007812 19.695312 C 63.019531 19.769531 63.039062 19.828125 63.039062 19.828125 C 63.039062 19.828125 63.019531 19.75 63.007812 19.695312 Z M 63.007812 19.695312 "/>
<path style=" stroke:none;fill-rule:evenodd;fill:rgb(0%,0%,0%);fill-opacity:1;" d="M 59.84375 13.671875 C 59.84375 13.671875 60.386719 13.816406 60.4375 13.457031 L 60.636719 12.550781 C 60.636719 12.550781 60.691406 12.140625 60.417969 12.089844 L 60.101562 12.039062 C 60.101562 12.039062 59.785156 11.945312 59.6875 12.304688 L 59.488281 13.164062 C 59.488281 13.164062 59.523438 13.714844 59.84375 13.671875 Z M 59.84375 13.671875 "/>
<path style=" stroke:none;fill-rule:evenodd;fill:rgb(97.647059%,86.27451%,18.823529%);fill-opacity:1;" d="M 48.6875 16 L 49.898438 15.984375 C 50.222656 15.949219 50.066406 15.660156 50.066406 15.660156 C 50.085938 15.316406 49.796875 15.371094 49.796875 15.371094 C 49.796875 15.371094 48.652344 15.371094 48.601562 15.402344 C 48.398438 15.539062 48.414062 15.589844 48.414062 15.589844 L 48.429688 15.828125 C 48.363281 16.085938 48.6875 16 48.6875 16 Z M 48.6875 16 "/>
<path style=" stroke:none;fill-rule:evenodd;fill:rgb(0%,0%,0%);fill-opacity:1;" d="M 71.363281 16.789062 L 71.839844 16.972656 C 71.839844 16.972656 72.113281 17.109375 72.183594 16.8125 L 72.542969 15.835938 C 72.542969 15.835938 72.773438 15.519531 72.453125 15.382812 L 72.023438 15.246094 C 72.023438 15.246094 71.792969 15.039062 71.679688 15.402344 L 71.292969 16.425781 C 71.292969 16.425781 71.113281 16.722656 71.363281 16.789062 Z M 71.363281 16.789062 "/>
<path style=" stroke:none;fill-rule:evenodd;fill:rgb(97.647059%,86.27451%,18.823529%);fill-opacity:1;" d="M 47.1875 13.886719 L 47.921875 13.902344 C 48.296875 13.921875 48.089844 13.546875 48.089844 13.546875 C 48.195312 13.1875 47.851562 13.238281 47.851562 13.238281 L 47.101562 13.273438 C 46.726562 13.257812 46.882812 13.613281 46.882812 13.613281 C 46.847656 14.003906 47.1875 13.886719 47.1875 13.886719 Z M 47.921875 15.984375 C 48.160156 16 48.023438 15.609375 48.023438 15.609375 C 48.007812 15.4375 47.765625 15.4375 47.765625 15.4375 L 47.597656 15.488281 C 47.425781 15.539062 47.648438 15.863281 47.648438 15.863281 C 47.734375 16.070312 47.921875 15.984375 47.921875 15.984375 Z M 51.332031 16.75 C 51.378906 16.425781 50.9375 16.445312 50.9375 16.445312 C 50.476562 16.476562 49.949219 16.394531 49.949219 16.394531 C 49.472656 16.324219 49.574219 16.972656 49.574219 16.972656 C 49.523438 17.3125 49.828125 17.277344 49.828125 17.277344 L 51.105469 17.246094 C 51.414062 17.277344 51.332031 16.75 51.332031 16.75 Z M 48.910156 17.3125 C 49.402344 17.347656 49.164062 16.765625 49.164062 16.765625 C 49.164062 16.394531 48.789062 16.476562 48.789062 16.476562 L 48.105469 16.527344 C 47.765625 16.546875 48.125 17.109375 48.125 17.109375 C 48.261719 17.449219 48.910156 17.3125 48.910156 17.3125 Z M 53.871094 12.796875 C 51.058594 12.402344 46.503906 12.847656 46.503906 12.847656 L 46.519531 12.984375 C 50.972656 12.503906 53.855469 12.929688 53.855469 12.929688 Z M 53.410156 13.800781 L 53.527344 13.597656 C 53.734375 13.460938 53.410156 13.324219 53.410156 13.324219 L 53 13.324219 C 52.695312 13.308594 52.796875 13.527344 52.796875 13.527344 C 52.675781 14.003906 52.96875 13.871094 52.96875 13.871094 L 53.222656 13.871094 C 53.359375 13.886719 53.410156 13.800781 53.410156 13.800781 Z M 51.28125 14.5 C 51.347656 14.210938 51.007812 14.226562 51.007812 14.226562 L 49.746094 14.261719 C 49.335938 14.160156 49.488281 14.570312 49.488281 14.570312 C 49.335938 15.0625 49.746094 14.925781 49.746094 14.925781 L 50.972656 14.945312 C 51.414062 15.046875 51.28125 14.5 51.28125 14.5 Z M 47.597656 14.722656 C 47.527344 15.03125 47.816406 14.992188 47.816406 14.992188 L 48.960938 14.945312 C 49.300781 14.992188 49.167969 14.738281 49.167969 14.738281 L 49.132812 14.484375 C 49.265625 14.140625 48.875 14.226562 48.875 14.226562 L 47.734375 14.261719 C 47.390625 14.296875 47.597656 14.722656 47.597656 14.722656 Z M 52.320312 13.582031 C 52.4375 13.152344 51.976562 13.222656 51.976562 13.222656 L 51.09375 13.207031 C 50.664062 13.171875 50.800781 13.5625 50.800781 13.5625 C 50.785156 13.988281 51.210938 13.851562 51.210938 13.851562 L 52.046875 13.871094 C 52.472656 13.902344 52.320312 13.582031 52.320312 13.582031 Z M 52.148438 15.625 C 52.167969 15.351562 51.894531 15.402344 51.894531 15.402344 C 51.894531 15.402344 50.734375 15.371094 50.648438 15.386719 C 50.296875 15.457031 50.445312 15.640625 50.445312 15.640625 C 50.375 16.121094 50.714844 16.019531 50.714844 16.019531 L 51.945312 16 C 52.285156 16.019531 52.148438 15.625 52.148438 15.625 Z M 46.128906 12.113281 C 46.316406 12.453125 46.417969 12.351562 46.417969 12.351562 C 50.632812 12.042969 53.820312 12.316406 53.820312 12.316406 C 54.226562 12.402344 54.125 12.128906 54.125 12.128906 C 54.246094 11.789062 53.90625 11.839844 53.90625 11.839844 L 53.425781 11.804688 C 53.050781 11.773438 53.136719 11.535156 53.136719 11.535156 L 53.136719 10.953125 C 53.222656 10.613281 52.984375 10.613281 52.984375 10.613281 L 52.761719 10.628906 C 52.453125 10.628906 52.558594 10.816406 52.558594 10.816406 L 52.539062 11.347656 C 52.523438 11.789062 52.265625 11.738281 52.265625 11.738281 L 51.210938 11.773438 C 50.699219 11.789062 50.800781 11.535156 50.800781 11.535156 L 50.714844 10.835938 C 50.785156 10.511719 50.597656 10.527344 50.597656 10.527344 L 50.410156 10.546875 C 50.152344 10.527344 50.171875 10.714844 50.171875 10.714844 L 50.152344 11.296875 C 50.171875 11.804688 49.898438 11.671875 49.898438 11.671875 L 48.941406 11.703125 C 48.515625 11.671875 48.621094 11.382812 48.621094 11.382812 L 48.621094 10.765625 C 48.671875 10.511719 48.515625 10.546875 48.515625 10.546875 L 48.089844 10.527344 C 47.867188 10.527344 47.917969 10.734375 47.917969 10.734375 L 47.886719 11.328125 C 47.886719 11.84375 47.511719 11.773438 47.511719 11.773438 L 46.453125 11.773438 C 46.164062 11.722656 46.199219 11.550781 46.199219 11.550781 L 46.199219 11.023438 C 46.265625 10.800781 46.078125 10.765625 46.078125 10.765625 L 45.820312 10.75 C 45.546875 10.734375 45.632812 10.953125 45.632812 10.953125 Z M 40.515625 19.40625 C 41.050781 19.425781 40.921875 18.632812 40.921875 18.632812 C 41.015625 13.722656 42.652344 13.765625 42.652344 13.765625 C 44.699219 13.585938 45.289062 18.175781 45.289062 18.175781 C 45.335938 18.722656 45.835938 18.585938 45.835938 18.585938 L 47.835938 18.402344 L 44.699219 10.496094 C 44.46875 9.71875 44.0625 9.949219 44.0625 9.949219 L 40.242188 10.402344 C 39.058594 10.359375 39.242188 11.039062 39.242188 11.039062 L 37.96875 19.859375 Z M 43.804688 11.324219 L 44.125 11.277344 C 44.125 11.277344 44.441406 11.1875 44.535156 11.550781 L 44.714844 12.414062 C 44.714844 12.414062 44.667969 12.960938 44.351562 12.914062 C 44.351562 12.914062 43.804688 13.050781 43.757812 12.6875 L 43.578125 11.777344 C 43.578125 11.777344 43.535156 11.367188 43.804688 11.324219 Z M 39.753906 11.949219 L 40.070312 11.902344 C 40.070312 11.902344 40.390625 11.8125 40.480469 12.175781 L 40.664062 13.039062 C 40.664062 13.039062 40.617188 13.585938 40.300781 13.539062 C 40.300781 13.539062 39.753906 13.675781 39.707031 13.3125 L 39.527344 12.402344 C 39.527344 12.402344 39.480469 11.992188 39.753906 11.949219 Z M 39.753906 11.949219 "/>
<path style=" stroke:none;fill-rule:evenodd;fill:rgb(97.647059%,86.27451%,18.823529%);fill-opacity:1;" d="M 42.742188 14.539062 C 44.105469 14.175781 44.832031 18.496094 44.832031 18.496094 L 45.105469 18.449219 C 44.242188 13.632812 42.699219 14.085938 42.699219 14.085938 C 40.921875 14.722656 41.332031 19.039062 41.332031 19.039062 L 41.605469 18.949219 C 41.378906 14.632812 42.742188 14.539062 42.742188 14.539062 Z M 42.742188 14.539062 "/>
<path style=" stroke:none;fill-rule:evenodd;fill:rgb(29.803922%,41.176471%,68.627451%);fill-opacity:1;" d="M 34.480469 20.652344 C 34.480469 20.652344 34.425781 20.605469 34.386719 20.566406 C 34.433594 20.617188 34.480469 20.652344 34.480469 20.652344 Z M 34.480469 20.652344 "/>
<path style=" stroke:none;fill-rule:evenodd;fill:rgb(97.647059%,86.27451%,18.823529%);fill-opacity:1;" d="M 51.824219 17.277344 C 51.894531 17.5 52.25 16.835938 52.25 16.835938 C 52.386719 16.597656 52.078125 16.511719 52.078125 16.511719 C 51.671875 16.445312 51.6875 16.75 51.6875 16.75 C 51.671875 16.800781 51.671875 17.042969 51.671875 17.042969 C 51.652344 17.160156 51.824219 17.277344 51.824219 17.277344 Z M 51.824219 17.277344 "/>
<path style=" stroke:none;fill-rule:evenodd;fill:rgb(0%,0%,0%);fill-opacity:1;" d="M 39.707031 13.3125 C 39.753906 13.675781 40.300781 13.539062 40.300781 13.539062 C 40.617188 13.585938 40.664062 13.039062 40.664062 13.039062 L 40.480469 12.175781 C 40.390625 11.8125 40.070312 11.902344 40.070312 11.902344 L 39.753906 11.949219 C 39.480469 11.992188 39.527344 12.402344 39.527344 12.402344 Z M 39.707031 13.3125 "/>
<path style=" stroke:none;fill-rule:evenodd;fill:rgb(97.647059%,86.27451%,18.823529%);fill-opacity:1;" d="M 46.042969 7.457031 L 45.941406 5.308594 C 45.910156 4.902344 45.5 4.96875 45.5 4.96875 C 45.089844 4.953125 45.15625 5.242188 45.15625 5.242188 L 45.277344 6.144531 C 45.226562 6.488281 45.003906 6.453125 45.003906 6.453125 L 44.066406 6.523438 C 43.726562 6.539062 43.691406 6.347656 43.691406 6.347656 L 43.570312 5.34375 C 43.539062 4.988281 43.011719 5.15625 43.011719 5.15625 C 42.738281 5.15625 42.71875 5.414062 42.71875 5.414062 L 42.839844 6.199219 C 42.90625 6.605469 42.738281 6.691406 42.738281 6.691406 L 41.882812 6.84375 C 41.578125 6.898438 41.542969 6.640625 41.542969 6.640625 L 41.335938 5.566406 C 41.304688 5.257812 40.894531 5.445312 40.894531 5.445312 C 40.605469 5.464844 40.691406 5.753906 40.691406 5.753906 L 40.828125 6.554688 C 40.910156 6.996094 40.621094 7.03125 40.621094 7.03125 L 39.53125 7.21875 C 39.191406 7.269531 39.140625 6.929688 39.140625 6.929688 L 38.917969 5.976562 C 38.867188 5.769531 38.558594 5.875 38.558594 5.875 C 38.203125 5.875 38.167969 6.0625 38.167969 6.0625 L 38.285156 6.945312 C 38.457031 7.253906 38.269531 7.441406 38.269531 7.441406 L 37.28125 7.613281 C 37.042969 7.664062 36.992188 7.425781 36.992188 7.425781 L 36.71875 6.417969 C 36.703125 6.164062 36.414062 6.265625 36.414062 6.265625 C 35.867188 6.265625 35.96875 6.503906 35.96875 6.503906 L 36.496094 8.550781 C 36.566406 9.25 37.078125 8.992188 37.078125 8.992188 C 39.449219 8.429688 45.722656 7.730469 45.722656 7.730469 C 46.078125 7.765625 46.042969 7.457031 46.042969 7.457031 Z M 49.933594 13.171875 L 48.738281 13.222656 C 48.378906 13.222656 48.519531 13.597656 48.519531 13.597656 C 48.464844 13.972656 48.859375 13.886719 48.859375 13.886719 L 50.050781 13.851562 C 50.5625 13.816406 50.394531 13.546875 50.394531 13.546875 C 50.511719 13.121094 49.933594 13.171875 49.933594 13.171875 Z M 39.175781 10.066406 L 44.492188 9.316406 C 44.867188 9.285156 44.953125 8.722656 44.953125 8.722656 C 45.210938 8.378906 44.765625 8.449219 44.765625 8.449219 C 42.3125 8.5 38.390625 9.335938 38.390625 9.335938 C 37.894531 9.367188 38.1875 9.605469 38.1875 9.605469 C 38.441406 9.933594 38.714844 9.980469 38.714844 9.980469 C 38.902344 10.066406 39.175781 10.066406 39.175781 10.066406 Z M 39.175781 10.066406 "/>
<path style=" stroke:none;fill-rule:evenodd;fill:rgb(0%,0%,0%);fill-opacity:1;" d="M 43.757812 12.6875 C 43.804688 13.050781 44.351562 12.914062 44.351562 12.914062 C 44.667969 12.960938 44.714844 12.414062 44.714844 12.414062 L 44.535156 11.550781 C 44.441406 11.1875 44.125 11.277344 44.125 11.277344 L 43.804688 11.324219 C 43.53125 11.367188 43.578125 11.777344 43.578125 11.777344 Z M 43.757812 12.6875 "/>
<path style=" stroke:none;fill-rule:evenodd;fill:rgb(29.803922%,41.176471%,68.627451%);fill-opacity:1;" d="M 28.308594 16.746094 C 28.375 17.042969 28.648438 16.902344 28.648438 16.902344 L 29.128906 16.722656 C 29.378906 16.652344 29.195312 16.359375 29.195312 16.359375 L 28.808594 15.335938 C 28.695312 14.972656 28.46875 15.175781 28.46875 15.175781 L 28.035156 15.3125 C 27.71875 15.449219 27.945312 15.769531 27.945312 15.769531 Z M 28.308594 16.746094 "/>
<path style=" stroke:none;fill-rule:evenodd;fill:rgb(97.647059%,86.27451%,18.823529%);fill-opacity:1;" d="M 36.289062 20.222656 C 36.332031 20.191406 37.105469 20.042969 37.105469 20.042969 C 37.457031 19.835938 37.332031 19.589844 37.332031 19.589844 C 37.363281 19.277344 37.078125 19.394531 37.078125 19.394531 L 36.21875 19.605469 C 35.769531 19.714844 35.964844 20.140625 35.964844 20.140625 C 36.003906 20.464844 36.242188 20.253906 36.289062 20.222656 Z M 28.011719 12.3125 C 24.898438 13.699219 22.511719 14.789062 22.511719 14.789062 C 22.875 15.128906 23.46875 15.222656 23.46875 15.222656 C 23.945312 14.902344 27.988281 13.175781 27.988281 13.175781 C 28.171875 12.882812 28.011719 12.3125 28.011719 12.3125 Z M 28.171875 11.675781 C 28.171875 11.675781 28.46875 11.628906 28.261719 11.265625 L 27.46875 9.105469 C 27.328125 8.742188 27.171875 8.949219 27.171875 8.949219 L 26.851562 9.105469 C 26.601562 9.222656 26.785156 9.449219 26.785156 9.449219 L 27.171875 10.402344 L 25.761719 10.96875 L 25.21875 9.855469 C 25.148438 9.652344 25.011719 9.71875 25.011719 9.71875 L 24.808594 9.855469 C 24.582031 9.949219 24.761719 10.199219 24.761719 10.199219 L 25.148438 11.222656 L 23.808594 11.859375 L 23.285156 10.652344 C 23.195312 10.425781 22.988281 10.628906 22.988281 10.628906 C 22.671875 10.765625 22.671875 10.8125 22.671875 10.8125 L 23.261719 12.199219 L 22.035156 12.789062 L 21.421875 11.699219 C 21.308594 11.3125 20.941406 11.628906 20.941406 11.628906 C 20.601562 11.789062 20.921875 12.0625 20.921875 12.0625 L 21.964844 14.085938 C 22.148438 14.539062 22.535156 14.175781 22.535156 14.175781 Z M 28.171875 11.675781 "/>
<path style=" stroke:none;fill-rule:evenodd;fill:rgb(97.647059%,86.27451%,18.823529%);fill-opacity:1;" d="M 71.089844 24.132812 L 71.160156 23.859375 C 49.0625 13.496094 28.945312 23.996094 28.945312 23.996094 L 29.011719 24.269531 C 51.449219 13.765625 71.089844 24.132812 71.089844 24.132812 Z M 28.46875 18.769531 C 30.035156 19.746094 31.105469 21.792969 31.105469 21.792969 C 31.332031 22.132812 31.46875 22.066406 31.46875 22.066406 L 33.855469 20.996094 L 28.421875 14.269531 C 28.035156 13.652344 27.71875 13.925781 27.71875 13.925781 L 24.738281 15.289062 L 26.46875 17.996094 C 26.648438 18.382812 26.808594 18.199219 26.808594 18.199219 C 28.101562 18.222656 28.46875 18.769531 28.46875 18.769531 Z M 28.46875 18.769531 "/>
<path style=" stroke:none;fill-rule:evenodd;fill:rgb(0%,0%,0%);fill-opacity:1;" d="M 28.035156 15.3125 L 28.46875 15.175781 C 28.46875 15.175781 28.695312 14.972656 28.808594 15.335938 L 29.195312 16.359375 C 29.195312 16.359375 29.378906 16.652344 29.128906 16.722656 L 28.648438 16.902344 C 28.648438 16.902344 28.375 17.042969 28.308594 16.746094 L 27.945312 15.769531 C 27.945312 15.769531 27.71875 15.449219 28.035156 15.3125 Z M 28.035156 15.3125 "/>
</g>
</svg>
