<?xml version="1.0" encoding="UTF-8"?>
<!DOCTYPE svg PUBLIC "-//W3C//DTD SVG 1.1//EN" "http://www.w3.org/Graphics/SVG/1.1/DTD/svg11.dtd">
<svg xmlns="http://www.w3.org/2000/svg" version="1.1" width="100px" height="100px" style="shape-rendering:geometricPrecision; text-rendering:geometricPrecision; image-rendering:optimizeQuality; fill-rule:evenodd; clip-rule:evenodd" xmlns:xlink="http://www.w3.org/1999/xlink">
<g><path style="opacity:1" fill="#766b3e" d="M 45.5,7.5 C 45.631,6.76109 45.4643,6.09442 45,5.5C 42.8223,5.93554 40.3223,6.43554 37.5,7C 36.4019,7.76971 36.4019,8.60305 37.5,9.5C 35.9743,8.89527 34.9743,7.72861 34.5,6C 35.7659,5.69055 36.9326,5.19055 38,4.5C 38.3333,4.83333 38.6667,5.16667 39,5.5C 41.1634,4.33203 43.1634,3.66536 45,3.5C 46.6298,4.81787 46.7965,6.1512 45.5,7.5 Z"/></g>
<g><path style="opacity:1" fill="#7f733f" d="M 61.5,5.5 C 59.3827,6.77298 57.216,6.77298 55,5.5C 53.9701,5.83611 53.4701,6.50278 53.5,7.5C 52.2035,6.1512 52.3702,4.81787 54,3.5C 56.3794,3.82188 58.8794,4.48855 61.5,5.5 Z"/></g>
<g><path style="opacity:1" fill="#d8bf29" d="M 45.5,7.5 C 37.0358,7.38143 36.7025,8.04809 44.5,9.5C 43.9094,10.1515 43.2427,10.8182 42.5,11.5C 45.3381,12.5123 46.6714,14.5123 46.5,17.5C 45.5,17.5 44.5,17.5 43.5,17.5C 43.5,16.5 43.5,15.5 43.5,14.5C 42.5,14.5 41.5,14.5 40.5,14.5C 40.7678,16.099 40.4345,17.4324 39.5,18.5C 38.596,17.791 38.2627,16.791 38.5,15.5C 38.3601,13.8762 39.0267,12.7096 40.5,12C 39.3094,11.3021 38.3094,10.4687 37.5,9.5C 36.4019,8.60305 36.4019,7.76971 37.5,7C 40.3223,6.43554 42.8223,5.93554 45,5.5C 45.4643,6.09442 45.631,6.76109 45.5,7.5 Z"/></g>
<g><path style="opacity:1" fill="#6c601c" d="M 45.5,7.5 C 45.1667,8.16667 44.8333,8.83333 44.5,9.5C 36.7025,8.04809 37.0358,7.38143 45.5,7.5 Z"/></g>
<g><path style="opacity:1" fill="#7c734e" d="M 27.5,9.5 C 25.3635,10.4026 23.3635,11.5693 21.5,13C 22.5707,13.8518 23.5707,14.6851 24.5,15.5C 21.6787,15.6841 20.0121,14.3507 19.5,11.5C 21.7935,9.77006 24.2935,8.43673 27,7.5C 27.4643,8.09442 27.631,8.76109 27.5,9.5 Z"/></g>
<g><path style="opacity:1" fill="#d9c02e" d="M 61.5,9.5 C 60.7611,9.36899 60.0944,9.53566 59.5,10C 61.2165,13.0639 61.5498,16.2306 60.5,19.5C 58.7175,17.9775 58.0508,15.9775 58.5,13.5C 55.6711,13.3249 54.0045,14.6582 53.5,17.5C 52.7025,17.0431 52.3691,16.3764 52.5,15.5C 53.404,14.791 53.7373,13.791 53.5,12.5C 55.9424,12.6463 56.6091,11.813 55.5,10C 57.087,9.13759 58.7536,8.47093 60.5,8C 58.1902,7.50335 55.8568,7.33669 53.5,7.5C 53.4701,6.50278 53.9701,5.83611 55,5.5C 57.216,6.77298 59.3827,6.77298 61.5,5.5C 63.0093,4.14054 63.676,4.64054 63.5,7C 63.3158,8.37561 62.6491,9.20894 61.5,9.5 Z"/></g>
<g><path style="opacity:1" fill="#6b5f1b" d="M 53.5,7.5 C 55.8568,7.33669 58.1902,7.50335 60.5,8C 58.7536,8.47093 57.087,9.13759 55.5,10C 56.6091,11.813 55.9424,12.6463 53.5,12.5C 53.7373,13.791 53.404,14.791 52.5,15.5C 51.6715,14.6676 50.8382,15.001 50,16.5C 48.647,15.3147 47.4803,13.9814 46.5,12.5C 47.3202,10.8888 48.6536,10.2222 50.5,10.5C 51.766,9.9101 53.0993,9.4101 54.5,9C 53.944,8.61742 53.6107,8.11742 53.5,7.5 Z"/></g>
<g><path style="opacity:1" fill="#7c6e26" d="M 27.5,9.5 C 28.29,10.6085 28.79,11.9419 29,13.5C 31.3015,12.1328 33.8015,11.4661 36.5,11.5C 37.0431,11.56 37.3764,11.8933 37.5,12.5C 36.624,13.2508 35.624,13.7508 34.5,14C 35.7014,14.9025 36.5348,16.0692 37,17.5C 37.2784,16.5842 37.7784,15.9175 38.5,15.5C 38.2627,16.791 38.596,17.791 39.5,18.5C 37.3723,18.7464 35.0389,19.4131 32.5,20.5C 31.9688,18.4559 30.8022,16.7893 29,15.5C 28.6667,15.8333 28.3333,16.1667 28,16.5C 27.5034,14.1902 27.3367,11.8568 27.5,9.5 Z"/></g>
<g><path style="opacity:1" fill="#3e3813" d="M 37.5,9.5 C 38.3094,10.4687 39.3094,11.3021 40.5,12C 39.0267,12.7096 38.3601,13.8762 38.5,15.5C 37.7784,15.9175 37.2784,16.5842 37,17.5C 36.5348,16.0692 35.7014,14.9025 34.5,14C 35.624,13.7508 36.624,13.2508 37.5,12.5C 37.3764,11.8933 37.0431,11.56 36.5,11.5C 36.8333,10.8333 37.1667,10.1667 37.5,9.5 Z"/></g>
<g><path style="opacity:1" fill="#7c6f28" d="M 74.5,16.5 C 73.88,14.0233 72.88,14.0233 71.5,16.5C 70.914,16.2907 70.414,15.9574 70,15.5C 69.34,17.3237 68.1733,18.657 66.5,19.5C 64.3227,20.5672 62.9894,19.7338 62.5,17C 62.7549,15.6739 63.4216,14.6739 64.5,14C 63.244,13.5831 62.5774,12.7498 62.5,11.5C 65.1813,11.4621 67.6813,12.1287 70,13.5C 71.5819,12.7052 71.7485,11.5385 70.5,10C 70.6301,8.94123 71.1301,8.1079 72,7.5C 74.5448,8.52177 77.0448,9.68844 79.5,11C 78.3365,13.3284 76.6698,15.1618 74.5,16.5 Z"/></g>
<g><path style="opacity:1" fill="#c9b22b" d="M 27.5,9.5 C 27.3367,11.8568 27.5034,14.1902 28,16.5C 28.3333,16.1667 28.6667,15.8333 29,15.5C 30.8022,16.7893 31.9688,18.4559 32.5,20.5C 32.44,21.0431 32.1067,21.3764 31.5,21.5C 29.7541,19.7484 27.7541,18.4151 25.5,17.5C 24.6618,17.1583 24.3284,16.4916 24.5,15.5C 23.5707,14.6851 22.5707,13.8518 21.5,13C 23.3635,11.5693 25.3635,10.4026 27.5,9.5 Z"/></g>
<g><path style="opacity:1" fill="#e9ce2c" d="M 74.5,16.5 C 71.9108,17.4194 69.9108,19.086 68.5,21.5C 67.4777,21.1445 66.811,20.4778 66.5,19.5C 68.1733,18.657 69.34,17.3237 70,15.5C 70.414,15.9574 70.914,16.2907 71.5,16.5C 72.88,14.0233 73.88,14.0233 74.5,16.5 Z"/></g>
<g><path style="opacity:1" fill="#3c3513" d="M 44.5,9.5 C 46.7354,9.20528 48.7354,9.53862 50.5,10.5C 48.6536,10.2222 47.3202,10.8888 46.5,12.5C 47.4803,13.9814 48.647,15.3147 50,16.5C 50.8382,15.001 51.6715,14.6676 52.5,15.5C 52.3691,16.3764 52.7025,17.0431 53.5,17.5C 54.0045,14.6582 55.6711,13.3249 58.5,13.5C 58.0508,15.9775 58.7175,17.9775 60.5,19.5C 61.5498,16.2306 61.2165,13.0639 59.5,10C 60.0944,9.53566 60.7611,9.36899 61.5,9.5C 61.8333,10.1667 62.1667,10.8333 62.5,11.5C 62.5774,12.7498 63.244,13.5831 64.5,14C 63.4216,14.6739 62.7549,15.6739 62.5,17C 62.9894,19.7338 64.3227,20.5672 66.5,19.5C 66.811,20.4778 67.4777,21.1445 68.5,21.5C 69.9108,19.086 71.9108,17.4194 74.5,16.5C 72.63,20.1255 70.9633,23.7922 69.5,27.5C 69.5,26.1667 69.5,24.8333 69.5,23.5C 68.5,23.5 67.5,23.5 66.5,23.5C 54.8262,18.2244 42.9929,18.2244 31,23.5C 29.9701,23.8361 29.4701,24.5028 29.5,25.5C 29.5,26.1667 29.5,26.8333 29.5,27.5C 28.1717,24.2109 26.8384,20.8776 25.5,17.5C 27.7541,18.4151 29.7541,19.7484 31.5,21.5C 32.1067,21.3764 32.44,21.0431 32.5,20.5C 35.0389,19.4131 37.3723,18.7464 39.5,18.5C 40.4345,17.4324 40.7678,16.099 40.5,14.5C 41.5,14.5 42.5,14.5 43.5,14.5C 43.5,15.5 43.5,16.5 43.5,17.5C 44.5,17.5 45.5,17.5 46.5,17.5C 46.6714,14.5123 45.3381,12.5123 42.5,11.5C 43.2427,10.8182 43.9094,10.1515 44.5,9.5 Z"/></g>
<g><path style="opacity:1" fill="#ddc32a" d="M 66.5,23.5 C 53.911,20.292 41.5776,20.9587 29.5,25.5C 29.4701,24.5028 29.9701,23.8361 31,23.5C 42.9929,18.2244 54.8262,18.2244 66.5,23.5 Z"/></g>
<g><path style="opacity:1" fill="#5f5412" d="M 66.5,23.5 C 67.5,23.5 68.5,23.5 69.5,23.5C 69.5,24.8333 69.5,26.1667 69.5,27.5C 56.1195,22.2065 42.7862,22.2065 29.5,27.5C 29.5,26.8333 29.5,26.1667 29.5,25.5C 41.5776,20.9587 53.911,20.292 66.5,23.5 Z"/></g>
<g><path style="opacity:1" fill="#1a1914" d="M 69.5,27.5 C 70.0339,32.7641 70.0339,38.0974 69.5,43.5C 68.8333,40.8333 68.1667,38.1667 67.5,35.5C 65.1423,33.8714 62.4757,32.7048 59.5,32C 52.8417,31.5004 46.175,31.3337 39.5,31.5C 36.7845,32.6341 34.1178,33.9675 31.5,35.5C 30.8333,38.5 30.1667,41.5 29.5,44.5C 28.7092,38.794 28.7092,33.1274 29.5,27.5C 42.7862,22.2065 56.1195,22.2065 69.5,27.5 Z"/></g>
<g><path style="opacity:1" fill="#89791a" d="M 40.5,25.5 C 41.8734,25.3433 43.2068,25.51 44.5,26C 44.0338,27.2988 44.0338,28.7988 44.5,30.5C 43.5,30.5 42.5,30.5 41.5,30.5C 41.3713,28.7839 41.038,27.1172 40.5,25.5 Z"/></g>
<g><path style="opacity:1" fill="#9e8c1e" d="M 59.5,25.5 C 63.5362,25.5724 64.3696,27.2391 62,30.5C 61,29.1667 60,29.1667 59,30.5C 59.0187,28.8925 59.1854,27.2259 59.5,25.5 Z"/></g>
<g><path style="opacity:1" fill="#817219" d="M 54.5,24.5 C 55.5,24.5 56.5,24.5 57.5,24.5C 57.5,26.5 57.5,28.5 57.5,30.5C 53.4889,30.1649 52.4889,28.1649 54.5,24.5 Z"/></g>
<g><path style="opacity:1" fill="#7e6f19" d="M 45.5,24.5 C 47.5959,24.596 49.7626,24.596 52,24.5C 52.4935,26.1341 52.6602,27.8008 52.5,29.5C 50.1667,29.5 47.8333,29.5 45.5,29.5C 45.5,27.8333 45.5,26.1667 45.5,24.5 Z"/></g>
<g><path style="opacity:1" fill="#a99621" d="M 65.5,27.5 C 66.6491,27.7911 67.3158,28.6244 67.5,30C 67.3333,30.8333 67.1667,31.6667 67,32.5C 65.9326,31.8095 64.7659,31.3095 63.5,31C 64.305,29.8873 64.9717,28.7206 65.5,27.5 Z"/></g>
<g><path style="opacity:1" fill="#c6af26" d="M 31.5,27.5 C 32.8333,28.1667 34.1667,28.8333 35.5,29.5C 35.5,30.5 35.5,31.5 35.5,32.5C 34.1667,31.8333 32.8333,31.1667 31.5,30.5C 31.5,29.5 31.5,28.5 31.5,27.5 Z"/></g>
<g><path style="opacity:1" fill="#88781a" d="M 39.5,31.5 C 38.5,31.5 37.5,31.5 36.5,31.5C 36.5792,30.0695 36.2458,28.7362 35.5,27.5C 36.3279,26.5853 37.3279,25.9186 38.5,25.5C 38.6399,26.5695 38.6399,27.7361 38.5,29C 40.6192,29.3418 40.9526,30.1751 39.5,31.5 Z"/></g>
<g><path style="opacity:1" fill="#fbf7f7" d="M 39.5,31.5 C 46.175,31.3337 52.8417,31.5004 59.5,32C 62.4757,32.7048 65.1423,33.8714 67.5,35.5C 68.0612,53.1967 64.2279,69.8634 56,85.5C 54.2888,88.2554 52.1221,90.5887 49.5,92.5C 46.8103,90.644 44.6437,88.3106 43,85.5C 34.2612,69.9741 30.4278,53.3075 31.5,35.5C 34.1178,33.9675 36.7845,32.6341 39.5,31.5 Z"/></g>
<g><path style="opacity:1" fill="#313131" d="M 31.5,35.5 C 30.4278,53.3075 34.2612,69.9741 43,85.5C 44.6437,88.3106 46.8103,90.644 49.5,92.5C 52.1221,90.5887 54.2888,88.2554 56,85.5C 64.2279,69.8634 68.0612,53.1967 67.5,35.5C 68.1667,38.1667 68.8333,40.8333 69.5,43.5C 68.8682,59.7011 64.3682,74.7011 56,88.5C 53.9835,90.684 51.8169,92.684 49.5,94.5C 40.3047,85.7839 34.4714,75.1172 32,62.5C 30.7454,56.5515 29.9121,50.5515 29.5,44.5C 30.1667,41.5 30.8333,38.5 31.5,35.5 Z"/></g>
<g><path style="opacity:1" fill="#b93034" d="M 48.5,35.5 C 51.5483,36.0163 53.8816,37.5163 55.5,40C 54.053,43.9052 52.8864,44.0718 52,40.5C 51.5026,43.146 51.3359,45.8127 51.5,48.5C 54.1873,48.6641 56.854,48.4974 59.5,48C 58.6721,47.0853 57.6721,46.4186 56.5,46C 57.5786,45.044 58.7453,44.2106 60,43.5C 61.87,45.4053 63.37,47.5719 64.5,50C 63.3597,52.4583 61.8597,54.625 60,56.5C 55.9352,54.9638 55.7686,53.4638 59.5,52C 56.854,51.5026 54.1873,51.3359 51.5,51.5C 51.1886,56.2232 51.8553,60.7232 53.5,65C 52.4362,73.2157 51.1029,81.3824 49.5,89.5C 48.0277,81.3616 46.6944,73.195 45.5,65C 47.1447,60.7232 47.8114,56.2232 47.5,51.5C 44.8127,51.3359 42.146,51.5026 39.5,52C 40.3279,52.9147 41.3279,53.5814 42.5,54C 41.4214,54.956 40.2547,55.7894 39,56.5C 36.9612,54.7426 35.4612,52.576 34.5,50C 35.4612,47.424 36.9612,45.2574 39,43.5C 40.2547,44.2106 41.4214,45.044 42.5,46C 41.3279,46.4186 40.3279,47.0853 39.5,48C 42.146,48.4974 44.8127,48.6641 47.5,48.5C 47.6641,45.8127 47.4974,43.146 47,40.5C 46.1136,44.0718 44.947,43.9052 43.5,40C 44.7615,38.0382 46.4281,36.5382 48.5,35.5 Z"/></g>
</svg>
